<svg width="84" height="21" viewBox="0 0 84 21" fill="none" xmlns="http://www.w3.org/2000/svg">
<path d="M5.11661 1.46859L6.08712 1.56204L5.08584 10.9468L3.83065 10.8259L4.53541 4.2204L1.74033 3.95127L1.85756 2.8525L2.07755 2.87368C3.92799 3.05186 4.87189 2.65955 5.11661 1.46859ZM9.44192 7.97076L9.53709 7.07882L14.0273 7.51118L13.9322 8.40312L9.44192 7.97076ZM15.873 4.95948L17.1282 5.08035L16.8317 7.85957L19.575 8.12372C21.2702 8.28695 22.1098 8.99465 21.9539 10.4554C21.8077 11.8256 20.7729 12.4573 19.1295 12.299L15.131 11.914L15.873 4.95948ZM16.7186 8.91956L16.4993 10.9749L19.1391 11.2291C20.0837 11.32 20.5452 11.038 20.6211 10.327C20.6983 9.60313 20.3807 9.27217 19.3455 9.17249L16.7186 8.91956ZM23.4127 12.7115L24.1547 5.75692L25.4099 5.87778L24.6679 12.8323L23.4127 12.7115ZM28.5267 6.17789L27.9488 11.5942L32.771 6.58658L34.1686 6.72115L33.4266 13.6757L32.1714 13.5548L32.7479 8.15148L27.9141 13.1449L26.5295 13.0116L27.2715 6.05703L28.5267 6.17789ZM28.8574 3.3236L29.582 3.39337C29.556 4.00466 30.1104 4.56736 30.9774 4.65085C31.8573 4.73557 32.5322 4.29124 32.6359 3.68743L33.3735 3.75845C33.1034 5.06451 32.2996 5.61396 30.9021 5.4794C29.5175 5.34608 28.8461 4.65458 28.8574 3.3236ZM40.3506 7.31641L42.1234 7.48711L43.9987 13.1918L47.0407 7.96059L48.8135 8.13129L48.0715 15.0858L46.8681 14.9699L47.3591 10.3681L47.5903 9.05827L44.4431 14.5406L43.3302 14.4334L41.3532 8.4577L41.3031 9.78494L40.8121 14.3868L39.6086 14.2709L40.3506 7.31641ZM57.4323 12.7354L51.1563 12.1311C51.0115 13.4884 51.9127 14.4762 53.4008 14.6195C54.5007 14.7254 55.3744 14.3786 55.7405 13.6433L57.2027 13.7841C56.551 15.2363 55.1272 15.9611 53.2767 15.7829C50.9345 15.5574 49.6111 13.9934 49.8497 11.7571C50.0897 9.50788 51.7336 8.19046 54.0628 8.41474C56.4438 8.644 57.7054 10.1759 57.4585 12.4898L57.4323 12.7354ZM51.2773 11.2416L56.1817 11.7138C56.1131 10.5188 55.2845 9.70772 53.9387 9.57813C52.6059 9.44979 51.6113 10.0723 51.2773 11.2416ZM65.7765 12.1023L64.4696 11.9764C64.3147 11.0996 63.6064 10.509 62.5842 10.4106C60.9925 10.2573 59.9172 11.1463 59.7489 12.7234C59.582 14.2875 60.4935 15.3025 61.9557 15.4433C63.1074 15.5542 64.0133 15.0276 64.2905 14.0226L65.6104 14.1497C65.1252 15.879 63.682 16.7848 61.7798 16.6017C59.567 16.3886 58.1816 14.7926 58.4175 12.5821C58.6533 10.3716 60.3402 9.01918 62.5918 9.23598C64.4293 9.41291 65.6444 10.5224 65.7765 12.1023ZM73.7321 10.5307L72.9901 17.4852L71.7349 17.3643L72.0314 14.5851L69.9092 14.3808L67.827 16.9881L66.4165 16.8522L68.5274 14.2216C67.5101 13.9539 66.7837 13.1657 66.9106 11.9764C67.0595 10.5803 68.129 9.99116 69.7983 10.1519L73.7321 10.5307ZM72.1445 13.5251L72.3638 11.4698L69.7111 11.2144C68.7535 11.1222 68.3179 11.4067 68.242 12.1177C68.1648 12.8416 68.4824 13.1725 69.5306 13.2734L72.1445 13.5251ZM76.85 10.8309L76.2211 16.7254L80.4655 17.1341L81.0944 11.2396L82.3496 11.3605L81.7207 17.255L82.4324 17.3235L82.1 20.4388L80.9095 20.3242L81.1288 18.2689L74.8529 17.6646L75.5949 10.71L76.85 10.8309Z" fill="white"/>
</svg>
