<svg width="246" height="165" viewBox="0 0 246 165" fill="none" xmlns="http://www.w3.org/2000/svg">
<g opacity="0.1" filter="url(#filter0_d_445_1983)">
<path d="M161.185 17.5081L159.441 64.6339C159.362 66.7533 157.552 68.4377 155.433 68.3637L108.303 66.7179C106.184 66.6439 104.503 64.8375 104.581 62.7181L106.326 15.5924C106.404 13.4729 108.214 11.7885 110.334 11.8625L157.463 13.5083C159.583 13.5823 161.264 15.3887 161.185 17.5081Z" fill="#2898F5"/>
</g>
<path d="M124.498 38.5051C129.811 36.4948 133.354 35.1709 135.125 34.5333C140.183 32.7129 141.231 32.4026 141.904 32.4145C142.052 32.4173 142.381 32.4642 142.588 32.6395C142.763 32.7876 142.804 32.9807 142.822 33.1159C142.839 33.2511 142.855 33.5582 142.821 33.7965C142.428 36.5165 140.964 43.0994 140.233 46.1358C139.924 47.4205 139.41 47.837 138.93 47.8628C137.888 47.9187 137.133 47.1365 136.156 46.4649C134.626 45.4141 133.765 44.7631 132.281 43.738C130.566 42.5532 131.738 41.9759 132.79 41.0023C133.066 40.7475 137.824 36.8901 137.929 36.5288C137.942 36.4836 137.96 36.314 137.86 36.2207C137.759 36.1273 137.604 36.1526 137.491 36.1731C137.332 36.2022 134.744 37.7185 129.728 40.7221C128.993 41.1702 128.336 41.3781 127.757 41.3458C127.119 41.3102 125.906 40.9321 125.006 40.6137C123.901 40.2232 123.019 40.0063 123.124 39.4123C123.178 39.1029 123.636 38.8005 124.498 38.5051Z" fill="#2898F5"/>
<g opacity="0.1" filter="url(#filter1_d_445_1983)">
<path d="M158.412 78.8733L156.667 125.999C156.589 128.119 154.779 129.803 152.659 129.729L105.53 128.083C103.41 128.009 101.729 126.203 101.808 124.083L103.552 76.9576C103.631 74.8382 105.441 73.1537 107.56 73.2277L154.69 74.8735C156.809 74.9476 158.49 76.7539 158.412 78.8733Z" fill="#2898F5"/>
</g>
<path d="M137.966 97.8446C137.795 97.1093 137.309 96.5713 136.604 96.3383C135.395 95.9835 130.193 95.8019 130.193 95.8019C130.193 95.8019 125.094 95.6238 123.754 95.8896C123.031 96.0727 122.498 96.5751 122.261 97.2962C121.996 98.6415 121.873 101.346 121.873 101.346C121.873 101.346 121.751 104.051 121.996 105.414C122.167 106.15 122.653 106.687 123.358 106.92C124.567 107.275 129.768 107.457 129.768 107.457C129.768 107.457 134.868 107.635 136.208 107.369C136.931 107.186 137.464 106.684 137.701 105.963C138.068 104.621 138.191 101.916 138.191 101.916C138.191 101.916 138.313 99.2113 137.966 97.8446ZM128.287 104.071L128.513 99.0774L132.684 101.724L128.287 104.071Z" fill="#2898F5"/>
<g opacity="0.1" filter="url(#filter2_d_445_1983)">
<path d="M223.349 19.679L221.605 66.8048C221.526 68.9242 219.716 70.6086 217.597 70.5346L170.467 68.8888C168.348 68.8148 166.667 67.0084 166.745 64.889L168.49 17.7632C168.568 15.6438 170.378 13.9594 172.498 14.0334L219.627 15.6792C221.747 15.7532 223.428 17.5596 223.349 19.679Z" fill="#2898F5"/>
</g>
<path d="M195.89 47.5259C190.049 47.322 186.903 43.1309 187.074 36.3349L190.011 36.4375C189.88 41.421 191.936 43.6032 193.624 44.0982L193.965 36.5755L196.723 36.6718L196.528 40.9643C198.219 40.8402 200.083 38.9432 200.779 36.8047L203.528 36.9008C203.254 38.0107 202.758 39.0536 202.072 39.9645C201.386 40.8753 200.525 41.6345 199.543 42.1945C200.585 42.773 201.492 43.5715 202.205 44.5373C202.917 45.5032 203.419 46.6145 203.677 47.7979L200.646 47.692C200.09 45.6059 198.54 43.9472 196.407 43.6547L196.231 47.5379L195.898 47.5262L195.89 47.5259Z" fill="#2898F5"/>
<g opacity="0.1" filter="url(#filter3_d_445_1983)">
<path d="M220.572 81.0432L218.827 128.169C218.749 130.288 216.939 131.973 214.819 131.899L167.69 130.253C165.57 130.179 163.889 128.373 163.968 126.253L165.712 79.1275C165.791 77.0081 167.601 75.3237 169.721 75.3977L216.85 77.0435C218.969 77.1175 220.65 78.9238 220.572 81.0432Z" fill="#2898F5"/>
</g>
<path d="M192.523 96.4831C194.891 96.5658 195.214 96.577 196.183 96.6109C197.045 96.641 197.466 96.8712 197.784 96.9901C198.205 97.2204 198.523 97.3393 198.831 97.6735C199.139 98.0076 199.34 98.338 199.428 98.7723C199.521 99.0989 199.61 99.5332 199.678 100.398C199.634 101.367 199.625 101.582 199.513 104.057C199.401 106.533 199.391 106.748 199.347 107.716C199.308 108.577 199.073 109 198.951 109.319C198.716 109.742 198.594 110.062 198.257 110.373C197.919 110.685 197.586 110.889 197.151 110.981C196.823 111.078 196.387 111.17 195.521 111.248C194.552 111.214 194.337 111.206 191.861 111.12C189.385 111.034 189.169 111.026 188.2 110.992C187.339 110.962 186.918 110.732 186.6 110.613C186.179 110.383 185.861 110.264 185.553 109.93C185.244 109.595 185.044 109.265 184.955 108.831C184.862 108.504 184.774 108.07 184.705 107.205C184.749 106.236 184.759 106.021 184.871 103.546C184.983 101.071 184.993 100.855 185.037 99.8866C185.075 99.0256 185.31 98.6027 185.433 98.2835C185.667 97.8606 185.79 97.5415 186.127 97.2299C186.465 96.9183 186.797 96.7143 187.233 96.6217C187.561 96.5254 187.996 96.4328 188.862 96.3552C189.831 96.3891 190.154 96.4003 192.523 96.4831ZM192.596 94.8687C190.12 94.7822 189.904 94.7747 188.935 94.7409C187.967 94.707 187.311 94.8997 186.763 95.0962C186.215 95.2926 185.662 95.5967 185.099 96.116C184.537 96.6353 184.302 97.0583 183.95 97.6928C183.71 98.2234 183.573 98.8654 183.422 99.8302C183.378 100.799 183.363 101.122 183.256 103.489C183.144 105.965 183.134 106.18 183.091 107.149C183.047 108.117 183.233 108.771 183.424 109.316C183.615 109.862 183.913 110.411 184.427 110.968C184.941 111.525 185.362 111.755 185.994 112.101C186.522 112.335 187.163 112.465 188.127 112.607C189.096 112.64 189.419 112.652 191.788 112.734C194.156 112.817 194.479 112.828 195.448 112.862C196.417 112.896 197.073 112.703 197.621 112.507C198.169 112.31 198.722 112.006 199.284 111.487C199.847 110.968 200.082 110.545 200.434 109.91C200.674 109.38 200.811 108.738 200.962 107.773C201.006 106.804 201.021 106.481 201.128 104.114C201.235 101.746 201.249 101.423 201.293 100.454C201.337 99.4857 201.151 98.8324 200.96 98.2868C200.769 97.7412 200.47 97.1918 199.956 96.6348C199.442 96.0779 199.021 95.8476 198.39 95.5022C197.862 95.2682 197.22 95.138 196.256 94.9965C195.287 94.9627 195.072 94.9552 192.596 94.8687Z" fill="#2898F5"/>
<path d="M192.401 99.1737C189.817 99.0834 187.679 101.057 187.562 103.64C187.446 106.223 189.399 108.339 191.983 108.429C194.566 108.52 196.704 106.546 196.821 103.963C196.938 101.38 194.985 99.2639 192.401 99.1737ZM192.056 106.815C190.441 106.759 189.099 105.418 189.177 103.696C189.25 102.082 190.606 100.728 192.328 100.788C193.943 100.844 195.284 102.185 195.206 103.907C195.133 105.521 193.67 106.871 192.056 106.815Z" fill="#2898F5"/>
<path d="M197.094 100.308C197.689 100.328 198.193 99.8635 198.22 99.2691C198.247 98.6747 197.786 98.176 197.192 98.1552C196.597 98.1345 196.093 98.5995 196.066 99.1939C196.04 99.7883 196.5 100.287 197.094 100.308Z" fill="#2898F5"/>
<path opacity="0.1" d="M79.4741 33.9891L6.82489 31.4522C5.18927 31.395 3.87673 29.9835 3.93732 28.3469L4.60377 10.3434C4.66436 8.70667 6.07787 7.39037 7.7135 7.44749L80.3627 9.98445C81.9983 10.0416 83.3109 11.4531 83.2503 13.0897L82.5838 31.0933C82.6595 32.7347 81.246 34.051 79.4741 33.9891Z" fill="#2898F5"/>
<path opacity="0.7" d="M72.8946 23.7911L13.7393 21.7254C13.0578 21.7016 12.5328 21.137 12.558 20.455L12.6186 18.8183C12.6439 18.1364 13.2093 17.6099 13.8908 17.6337L73.046 19.6994C73.7275 19.7232 74.2525 20.2878 74.2273 20.9698L74.1667 22.6064C74.1415 23.2884 73.5761 23.8149 72.8946 23.7911Z" fill="#2898F5"/>
<path opacity="0.1" d="M78.3245 65.0865L5.67531 62.5495C4.03969 62.4924 2.72715 61.0809 2.78774 59.4442L3.45924 41.3043C3.51982 39.6676 4.93334 38.3513 6.56897 38.4084L79.2182 40.9454C80.8538 41.0025 82.1663 42.414 82.1057 44.0507L81.4393 62.0542C81.5099 63.832 80.0964 65.1483 78.3245 65.0865Z" fill="#2898F5"/>
<path opacity="0.7" d="M71.7422 54.8878L12.587 52.822C11.9055 52.7982 11.3804 52.2336 11.4057 51.5517L11.4663 49.915C11.4915 49.2331 12.0569 48.7065 12.7384 48.7303L71.8937 50.7961C72.5752 50.8199 73.1002 51.3845 73.075 52.0664L73.0144 53.7031C72.9891 54.3851 72.4237 54.9116 71.7422 54.8878Z" fill="#2898F5"/>
<path opacity="0.1" d="M76.021 127.28L3.37177 124.743C1.73614 124.686 0.423606 123.275 0.484192 121.638L1.15064 103.634C1.21123 101.998 2.62474 100.681 4.26037 100.739L76.9096 103.275C78.5452 103.333 79.8577 104.744 79.7971 106.381L79.1307 124.384C79.2064 126.026 77.7929 127.342 76.021 127.28Z" fill="#2898F5"/>
<path opacity="0.7" d="M69.4414 117.082L10.2862 115.016C9.60468 114.993 9.07967 114.428 9.10491 113.746L9.1655 112.109C9.19074 111.427 9.75615 110.901 10.4377 110.925L69.5929 112.99C70.2744 113.014 70.7994 113.579 70.7742 114.261L70.7136 115.897C70.6883 116.579 70.1229 117.106 69.4414 117.082Z" fill="#2898F5"/>
<path opacity="0.1" d="M77.4428 96.2108L4.79364 93.6738C3.15802 93.6167 1.84548 92.2052 1.90607 90.5685L2.57252 72.565C2.63311 70.9284 4.04662 69.6121 5.68225 69.6692L78.3314 72.2061C79.9671 72.2633 81.2796 73.6747 81.219 75.3114L80.5526 93.3149C80.6283 94.9564 79.2148 96.2727 77.4428 96.2108Z" fill="#2898F5"/>
<path opacity="0.7" d="M70.8633 86.0128L11.7081 83.947C11.0266 83.9232 10.5015 83.3586 10.5268 82.6767L10.5874 81.04C10.6126 80.3581 11.178 79.8315 11.8595 79.8553L71.0148 81.9211C71.6963 81.9449 72.2213 82.5095 72.1961 83.1914L72.1355 84.8281C72.1102 85.5101 71.5448 86.0366 70.8633 86.0128Z" fill="#2898F5"/>
<defs>
<filter id="filter0_d_445_1983" x="82.5781" y="0.860352" width="100.609" height="100.506" filterUnits="userSpaceOnUse" color-interpolation-filters="sRGB">
<feFlood flood-opacity="0" result="BackgroundImageFix"/>
<feColorMatrix in="SourceAlpha" type="matrix" values="0 0 0 0 0 0 0 0 0 0 0 0 0 0 0 0 0 0 127 0" result="hardAlpha"/>
<feOffset dy="11"/>
<feGaussianBlur stdDeviation="11"/>
<feColorMatrix type="matrix" values="0 0 0 0 0.397708 0 0 0 0 0.47749 0 0 0 0 0.575 0 0 0 0.27 0"/>
<feBlend mode="normal" in2="BackgroundImageFix" result="effect1_dropShadow_445_1983"/>
<feBlend mode="normal" in="SourceGraphic" in2="effect1_dropShadow_445_1983" result="shape"/>
</filter>
<filter id="filter1_d_445_1983" x="79.8047" y="62.2256" width="100.609" height="100.506" filterUnits="userSpaceOnUse" color-interpolation-filters="sRGB">
<feFlood flood-opacity="0" result="BackgroundImageFix"/>
<feColorMatrix in="SourceAlpha" type="matrix" values="0 0 0 0 0 0 0 0 0 0 0 0 0 0 0 0 0 0 127 0" result="hardAlpha"/>
<feOffset dy="11"/>
<feGaussianBlur stdDeviation="11"/>
<feColorMatrix type="matrix" values="0 0 0 0 0.397708 0 0 0 0 0.47749 0 0 0 0 0.575 0 0 0 0.27 0"/>
<feBlend mode="normal" in2="BackgroundImageFix" result="effect1_dropShadow_445_1983"/>
<feBlend mode="normal" in="SourceGraphic" in2="effect1_dropShadow_445_1983" result="shape"/>
</filter>
<filter id="filter2_d_445_1983" x="144.742" y="3.03125" width="100.609" height="100.506" filterUnits="userSpaceOnUse" color-interpolation-filters="sRGB">
<feFlood flood-opacity="0" result="BackgroundImageFix"/>
<feColorMatrix in="SourceAlpha" type="matrix" values="0 0 0 0 0 0 0 0 0 0 0 0 0 0 0 0 0 0 127 0" result="hardAlpha"/>
<feOffset dy="11"/>
<feGaussianBlur stdDeviation="11"/>
<feColorMatrix type="matrix" values="0 0 0 0 0.397708 0 0 0 0 0.47749 0 0 0 0 0.575 0 0 0 0.27 0"/>
<feBlend mode="normal" in2="BackgroundImageFix" result="effect1_dropShadow_445_1983"/>
<feBlend mode="normal" in="SourceGraphic" in2="effect1_dropShadow_445_1983" result="shape"/>
</filter>
<filter id="filter3_d_445_1983" x="141.965" y="64.3955" width="100.609" height="100.506" filterUnits="userSpaceOnUse" color-interpolation-filters="sRGB">
<feFlood flood-opacity="0" result="BackgroundImageFix"/>
<feColorMatrix in="SourceAlpha" type="matrix" values="0 0 0 0 0 0 0 0 0 0 0 0 0 0 0 0 0 0 127 0" result="hardAlpha"/>
<feOffset dy="11"/>
<feGaussianBlur stdDeviation="11"/>
<feColorMatrix type="matrix" values="0 0 0 0 0.397708 0 0 0 0 0.47749 0 0 0 0 0.575 0 0 0 0.27 0"/>
<feBlend mode="normal" in2="BackgroundImageFix" result="effect1_dropShadow_445_1983"/>
<feBlend mode="normal" in="SourceGraphic" in2="effect1_dropShadow_445_1983" result="shape"/>
</filter>
</defs>
</svg>
