<svg width="198" height="206" viewBox="0 0 198 206" fill="none" xmlns="http://www.w3.org/2000/svg">
<path d="M46.5079 84.5478C46.5874 59.0229 46.6272 46.2604 54.5814 38.3555C62.5357 30.4506 75.2982 30.4903 100.823 30.5698L106.063 30.5861C131.588 30.6656 144.351 30.7053 152.255 38.6596C160.16 46.6139 160.121 59.3763 160.041 84.9013L160.025 90.1413C159.945 115.666 159.906 128.429 151.951 136.334C143.997 144.239 131.235 144.199 105.71 144.119L100.47 144.103C74.9447 144.024 62.1822 143.984 54.2773 136.03C46.3724 128.075 46.4122 115.313 46.4916 89.7878L46.5079 84.5478Z" fill="#9E57E4"/>
<g filter="url(#filter0_di_445_2758)">
<path d="M42.297 80.1958C42.3765 54.6708 42.4162 41.9083 50.3705 34.0034C58.3248 26.0985 71.0872 26.1383 96.6122 26.2177L101.852 26.2341C127.377 26.3135 140.14 26.3533 148.045 34.3075C155.949 42.2618 155.91 55.0243 155.83 80.5493L155.814 85.7893C155.734 111.314 155.695 124.077 147.74 131.982C139.786 139.886 127.024 139.847 101.499 139.767L96.2587 139.751C70.7338 139.671 57.9713 139.632 50.0664 131.677C42.1615 123.723 42.2012 110.961 42.2807 85.4357L42.297 80.1958Z" fill="#AB68EE"/>
</g>
<g clip-path="url(#clip0_445_2758)">
<path d="M121.336 69.6576L115.672 75.3217H111.432H109.11L108.075 76.3569L104.137 80.2945L101.684 82.748L99.6091 84.8226C99.2988 85.1329 98.8923 85.2881 98.4855 85.2881C98.0639 85.2881 97.6418 85.1212 97.3277 84.7876C96.7312 84.154 96.7937 83.1434 97.4088 82.5281L101.537 78.4003L101.853 78.0842L105.807 74.1296L106.862 73.0744V70.812V66.5123L108.821 64.5538L112.527 60.8481C112.576 60.7991 112.627 60.7563 112.68 60.7164C112.692 60.7069 112.705 60.6976 112.717 60.6885C112.77 60.6513 112.824 60.6169 112.879 60.5881C112.883 60.5857 112.888 60.5841 112.892 60.5817C112.944 60.5553 112.997 60.5331 113.051 60.5138C113.065 60.509 113.078 60.5041 113.091 60.4997C113.148 60.4813 113.206 60.4657 113.264 60.4551C113.272 60.4535 113.28 60.4531 113.288 60.4515C113.341 60.4429 113.393 60.4376 113.445 60.4349C113.459 60.4343 113.472 60.4334 113.486 60.4329C113.544 60.4318 113.603 60.4336 113.66 60.4396C113.67 60.4407 113.68 60.4425 113.689 60.4436C113.739 60.4498 113.789 60.4589 113.838 60.4704C113.852 60.4737 113.866 60.4766 113.879 60.4801C113.936 60.495 113.991 60.5125 114.045 60.5338C114.053 60.5369 114.06 60.5409 114.068 60.544C114.115 60.5637 114.161 60.5861 114.206 60.6107C114.219 60.6178 114.231 60.6247 114.244 60.632C114.294 60.6615 114.343 60.6932 114.389 60.7284C114.395 60.7326 114.4 60.7375 114.405 60.7417C114.446 60.7743 114.486 60.8093 114.523 60.8466C114.534 60.857 114.544 60.8674 114.555 60.8783C114.595 60.921 114.634 60.9656 114.669 61.0137C114.672 61.0177 114.675 61.0221 114.678 61.0263C114.71 61.0713 114.739 61.1188 114.766 61.168C114.773 61.1815 114.78 61.195 114.787 61.209C114.814 61.2635 114.84 61.3198 114.86 61.3792C114.861 61.3821 114.861 61.385 114.862 61.3879C114.881 61.4449 114.896 61.5043 114.907 61.5652C114.91 61.5814 114.913 61.5978 114.916 61.6142C114.926 61.6794 114.934 61.7459 114.936 61.8153L115.049 67.1345L115.163 67.1369L120.368 67.2482C120.649 67.2542 120.895 67.3384 121.101 67.4712C121.18 67.522 121.255 67.5774 121.32 67.6417C121.415 67.7348 121.497 67.8405 121.562 67.9551C121.627 68.0697 121.677 68.193 121.709 68.3209C121.822 68.7691 121.721 69.2732 121.336 69.6576ZM98.2051 71.5644C91.2676 71.5644 85.6234 77.2086 85.6234 84.146C85.6234 91.0835 91.2676 96.7277 98.2051 96.7277C105.143 96.7277 110.787 91.0835 110.787 84.146C110.787 82.4347 110.44 80.8041 109.818 79.3163L105.271 83.863C105.275 83.9574 105.282 84.0509 105.282 84.1463C105.282 88.0486 102.107 91.2231 98.2048 91.2231C94.3025 91.2231 91.128 88.0484 91.128 84.1463C91.128 80.2577 94.2808 77.0927 98.1641 77.0705L102.799 72.4351C101.376 71.8739 99.8259 71.5644 98.2051 71.5644ZM118.023 77.673C117.4 78.2966 116.554 78.6468 115.672 78.6468H113.128C113.762 80.3614 114.112 82.2133 114.112 84.1458C114.112 92.9169 106.976 100.053 98.2051 100.053C89.434 100.053 82.2983 92.9169 82.2983 84.1458C82.2983 75.3747 89.434 68.2391 98.2051 68.2391C100.076 68.2391 101.87 68.567 103.537 69.1637V66.5123C103.537 65.6305 103.888 64.7846 104.511 64.161L105.563 63.1092C103.258 62.3007 100.782 61.8589 98.2048 61.8589C85.9158 61.8592 75.918 71.857 75.918 84.146C75.918 96.4351 85.916 106.433 98.2051 106.433C110.494 106.433 120.492 96.4351 120.492 84.146C120.492 81.4767 120.019 78.9164 119.154 76.5425L118.023 77.673Z" fill="white"/>
</g>
<defs>
<filter id="filter0_di_445_2758" x="0.265625" y="8.20312" width="197.578" height="197.579" filterUnits="userSpaceOnUse" color-interpolation-filters="sRGB">
<feFlood flood-opacity="0" result="BackgroundImageFix"/>
<feColorMatrix in="SourceAlpha" type="matrix" values="0 0 0 0 0 0 0 0 0 0 0 0 0 0 0 0 0 0 127 0" result="hardAlpha"/>
<feMorphology radius="23" operator="erode" in="SourceAlpha" result="effect1_dropShadow_445_2758"/>
<feOffset dy="24"/>
<feGaussianBlur stdDeviation="32.5"/>
<feComposite in2="hardAlpha" operator="out"/>
<feColorMatrix type="matrix" values="0 0 0 0 0.588235 0 0 0 0 0.164706 0 0 0 0 0.917647 0 0 0 0.22 0"/>
<feBlend mode="normal" in2="BackgroundImageFix" result="effect1_dropShadow_445_2758"/>
<feBlend mode="normal" in="SourceGraphic" in2="effect1_dropShadow_445_2758" result="shape"/>
<feColorMatrix in="SourceAlpha" type="matrix" values="0 0 0 0 0 0 0 0 0 0 0 0 0 0 0 0 0 0 127 0" result="hardAlpha"/>
<feOffset/>
<feGaussianBlur stdDeviation="30.5"/>
<feComposite in2="hardAlpha" operator="arithmetic" k2="-1" k3="1"/>
<feColorMatrix type="matrix" values="0 0 0 0 1 0 0 0 0 1 0 0 0 0 1 0 0 0 0.5 0"/>
<feBlend mode="normal" in2="shape" result="effect2_innerShadow_445_2758"/>
</filter>
<clipPath id="clip0_445_2758">
<rect width="46" height="46" fill="white" transform="translate(75.8359 60.4326)"/>
</clipPath>
</defs>
</svg>
