<svg width="44" height="43" viewBox="0 0 44 43" fill="none" xmlns="http://www.w3.org/2000/svg">
<g clip-path="url(#clip0_445_1855)">
<path d="M19.4135 3.77557C9.14227 5.2191 1.95334 14.4506 3.35176 24.4008C4.75018 34.3511 14.2052 41.2434 24.4764 39.7999C34.7477 38.3564 41.9366 29.1249 40.5382 19.1746C39.1398 9.22436 29.6848 2.33204 19.4135 3.77557ZM30.2794 14.832L29.1858 29.1912C29.0997 30.2106 28.5261 30.5356 27.6136 30.1898L22.4988 27.5239L20.5511 29.9307C20.3374 30.2052 20.1561 30.438 19.6762 30.5055L19.362 25.8762L26.9169 17.1265C27.2468 16.7543 26.7639 16.637 26.314 17.0261L16.5805 25.0154L11.7972 24.273C10.7572 24.1081 10.6418 23.4504 11.806 22.8127L28.7909 13.5969C29.5822 13.1895 30.3778 13.5739 30.2794 14.832Z" fill="white"/>
</g>
<defs>
<clipPath id="clip0_445_1855">
<rect width="37.5519" height="37.5519" fill="white" transform="translate(0.738281 5.80859) rotate(-8)"/>
</clipPath>
</defs>
</svg>
