<svg width="31" height="31" viewBox="0 0 31 31" fill="none" xmlns="http://www.w3.org/2000/svg">
<path d="M24.3354 12.9265C24.2337 12.8202 23.8497 12.3655 23.492 11.9915C21.3947 9.63933 15.9237 5.78933 13.0602 4.61417C12.6253 4.42533 11.5259 4.02567 10.9384 4C10.3755 4 9.83897 4.132 9.32694 4.39967C8.68865 4.77367 8.17662 5.36217 7.89606 6.057C7.71544 6.53917 7.43488 7.982 7.43488 8.00767C7.15431 9.58617 7 12.151 7 14.9853C7 17.6858 7.15431 20.1462 7.38402 21.7485C7.41033 21.7742 7.69089 23.5672 7.99776 24.1813C8.56064 25.3033 9.66011 26 10.8367 26H10.9384C11.7047 25.9725 13.3162 25.2758 13.3162 25.2502C16.0254 24.0732 21.3702 20.412 23.5183 17.9792C23.5183 17.9792 24.1232 17.354 24.3863 16.9635C24.7966 16.4025 25 15.7077 25 15.0128C25 14.2373 24.7703 13.515 24.3354 12.9265Z" fill="#2898F5"/>
</svg>
