<svg width="210" height="100" viewBox="0 0 210 100" fill="none" xmlns="http://www.w3.org/2000/svg">
<g id="Group 2072">
<g id="Group 2068">
<g id="Ellipse 286" opacity="0.15">
<g filter="url(#filter0_i_445_1627)">
<circle cx="160" cy="50" r="50" fill="white"/>
</g>
<circle cx="160" cy="50" r="49.5" stroke="white"/>
</g>
<path id="Arrow 7" d="M173.414 51.4142C174.195 50.6332 174.195 49.3668 173.414 48.5858L160.686 35.8579C159.905 35.0768 158.639 35.0768 157.858 35.8579C157.077 36.6389 157.077 37.9052 157.858 38.6863L169.172 50L157.858 61.3137C157.077 62.0948 157.077 63.3611 157.858 64.1421C158.639 64.9232 159.905 64.9232 160.686 64.1421L173.414 51.4142ZM147 52L172 52L172 48L147 48L147 52Z" fill="white"/>
</g>
<g id="Group 2069">
<g id="Ellipse 286_2" opacity="0.15">
<g filter="url(#filter1_i_445_1627)">
<circle cx="50" cy="50" r="50" transform="matrix(-1 0 0 1 100 0)" fill="white"/>
</g>
<circle cx="50" cy="50" r="49.5" transform="matrix(-1 0 0 1 100 0)" stroke="white"/>
</g>
<path id="Arrow 7_2" opacity="0.3" d="M36.5858 51.4142C35.8047 50.6332 35.8047 49.3668 36.5858 48.5858L49.3137 35.8579C50.0948 35.0768 51.3611 35.0768 52.1421 35.8579C52.9232 36.6389 52.9232 37.9052 52.1421 38.6863L40.8284 50L52.1421 61.3137C52.9232 62.0948 52.9232 63.3611 52.1421 64.1421C51.3611 64.9232 50.0948 64.9232 49.3137 64.1421L36.5858 51.4142ZM63 52L38 52L38 48L63 48L63 52Z" fill="white"/>
</g>
</g>
<defs>
<filter id="filter0_i_445_1627" x="110" y="0" width="100" height="100" filterUnits="userSpaceOnUse" color-interpolation-filters="sRGB">
<feFlood flood-opacity="0" result="BackgroundImageFix"/>
<feBlend mode="normal" in="SourceGraphic" in2="BackgroundImageFix" result="shape"/>
<feColorMatrix in="SourceAlpha" type="matrix" values="0 0 0 0 0 0 0 0 0 0 0 0 0 0 0 0 0 0 127 0" result="hardAlpha"/>
<feOffset/>
<feGaussianBlur stdDeviation="25"/>
<feComposite in2="hardAlpha" operator="arithmetic" k2="-1" k3="1"/>
<feColorMatrix type="matrix" values="0 0 0 0 1 0 0 0 0 1 0 0 0 0 1 0 0 0 0.5 0"/>
<feBlend mode="normal" in2="shape" result="effect1_innerShadow_445_1627"/>
</filter>
<filter id="filter1_i_445_1627" x="0" y="0" width="100" height="100" filterUnits="userSpaceOnUse" color-interpolation-filters="sRGB">
<feFlood flood-opacity="0" result="BackgroundImageFix"/>
<feBlend mode="normal" in="SourceGraphic" in2="BackgroundImageFix" result="shape"/>
<feColorMatrix in="SourceAlpha" type="matrix" values="0 0 0 0 0 0 0 0 0 0 0 0 0 0 0 0 0 0 127 0" result="hardAlpha"/>
<feOffset/>
<feGaussianBlur stdDeviation="25"/>
<feComposite in2="hardAlpha" operator="arithmetic" k2="-1" k3="1"/>
<feColorMatrix type="matrix" values="0 0 0 0 1 0 0 0 0 1 0 0 0 0 1 0 0 0 0.5 0"/>
<feBlend mode="normal" in2="shape" result="effect1_innerShadow_445_1627"/>
</filter>
</defs>
</svg>
