<svg width="100" height="100" viewBox="0 0 100 100" fill="none" xmlns="http://www.w3.org/2000/svg">
<g opacity="0.15">
<g filter="url(#filter0_i_2_49)">
<circle cx="50" cy="50" r="50" fill="white"/>
</g>
<circle cx="50" cy="50" r="49.5" stroke="white"/>
</g>
<path d="M63.4142 51.4142C64.1953 50.6332 64.1953 49.3668 63.4142 48.5858L50.6863 35.8579C49.9052 35.0768 48.6389 35.0768 47.8579 35.8579C47.0768 36.6389 47.0768 37.9052 47.8579 38.6863L59.1716 50L47.8579 61.3137C47.0768 62.0948 47.0768 63.3611 47.8579 64.1421C48.6389 64.9232 49.9052 64.9232 50.6863 64.1421L63.4142 51.4142ZM37 52L62 52L62 48L37 48L37 52Z" fill="white"/>
<defs>
<filter id="filter0_i_2_49" x="0" y="0" width="100" height="100" filterUnits="userSpaceOnUse" color-interpolation-filters="sRGB">
<feFlood flood-opacity="0" result="BackgroundImageFix"/>
<feBlend mode="normal" in="SourceGraphic" in2="BackgroundImageFix" result="shape"/>
<feColorMatrix in="SourceAlpha" type="matrix" values="0 0 0 0 0 0 0 0 0 0 0 0 0 0 0 0 0 0 127 0" result="hardAlpha"/>
<feOffset/>
<feGaussianBlur stdDeviation="25"/>
<feComposite in2="hardAlpha" operator="arithmetic" k2="-1" k3="1"/>
<feColorMatrix type="matrix" values="0 0 0 0 1 0 0 0 0 1 0 0 0 0 1 0 0 0 0.5 0"/>
<feBlend mode="normal" in2="shape" result="effect1_innerShadow_2_49"/>
</filter>
</defs>
</svg>
