<svg width="199" height="207" viewBox="0 0 199 207" fill="none" xmlns="http://www.w3.org/2000/svg">
<path d="M45.8573 85.7595C45.95 60.2346 45.9963 47.4722 53.9546 39.5714C61.913 31.6706 74.6755 31.7169 100.2 31.8096L105.44 31.8286C130.965 31.9212 143.728 31.9676 151.629 39.9259C159.529 47.8843 159.483 60.6467 159.39 86.1716L159.371 91.4116C159.279 116.937 159.232 129.699 151.274 137.6C143.316 145.501 130.553 145.454 105.028 145.362L99.7883 145.343C74.2634 145.25 61.5009 145.204 53.6001 137.245C45.6993 129.287 45.7456 116.524 45.8383 90.9995L45.8573 85.7595Z" fill="#0ABE9E"/>
<g filter="url(#filter0_di_445_2752)">
<path d="M42.9589 80.4402C43.0515 54.9153 43.0979 42.1528 51.0562 34.2521C59.0146 26.3513 71.777 26.3976 97.3019 26.4902L102.542 26.5093C128.067 26.6019 140.829 26.6482 148.73 34.6066C156.631 42.5649 156.585 55.3274 156.492 80.8523L156.473 86.0923C156.38 111.617 156.334 124.38 148.376 132.28C140.417 140.181 127.655 140.135 102.13 140.042L96.8898 140.023C71.3649 139.931 58.6025 139.884 50.7017 131.926C42.8009 123.968 42.8472 111.205 42.9399 85.6802L42.9589 80.4402Z" fill="#14DAB6"/>
</g>
<path d="M111.571 68.8508L101.029 64.9025C99.9365 64.5 98.154 64.5 97.0615 64.9025L86.5198 68.8508C84.4882 69.6175 82.8398 71.9941 82.8398 74.16V89.685C82.8398 91.2375 83.8557 93.2883 85.1015 94.2083L95.6432 102.086C97.5023 103.485 100.55 103.485 102.409 102.086L112.951 94.2083C114.197 93.2691 115.212 91.2375 115.212 89.685V74.16C115.232 71.9941 113.583 69.6175 111.571 68.8508ZM105.706 79.5841L97.464 87.8258C97.1765 88.1133 96.8123 88.2475 96.4482 88.2475C96.084 88.2475 95.7198 88.1133 95.4323 87.8258L92.3657 84.7208C91.8098 84.165 91.8098 83.245 92.3657 82.6891C92.9215 82.1333 93.8415 82.1333 94.3973 82.6891L96.4673 84.7591L103.693 77.5333C104.249 76.9775 105.169 76.9775 105.725 77.5333C106.281 78.0891 106.281 79.0283 105.706 79.5841Z" fill="white"/>
<defs>
<filter id="filter0_di_445_2752" x="0.921875" y="8.47168" width="197.59" height="197.589" filterUnits="userSpaceOnUse" color-interpolation-filters="sRGB">
<feFlood flood-opacity="0" result="BackgroundImageFix"/>
<feColorMatrix in="SourceAlpha" type="matrix" values="0 0 0 0 0 0 0 0 0 0 0 0 0 0 0 0 0 0 127 0" result="hardAlpha"/>
<feMorphology radius="23" operator="erode" in="SourceAlpha" result="effect1_dropShadow_445_2752"/>
<feOffset dy="24"/>
<feGaussianBlur stdDeviation="32.5"/>
<feComposite in2="hardAlpha" operator="out"/>
<feColorMatrix type="matrix" values="0 0 0 0 0.329412 0 0 0 0 0.894118 0 0 0 0 0.792157 0 0 0 0.3 0"/>
<feBlend mode="normal" in2="BackgroundImageFix" result="effect1_dropShadow_445_2752"/>
<feBlend mode="normal" in="SourceGraphic" in2="effect1_dropShadow_445_2752" result="shape"/>
<feColorMatrix in="SourceAlpha" type="matrix" values="0 0 0 0 0 0 0 0 0 0 0 0 0 0 0 0 0 0 127 0" result="hardAlpha"/>
<feOffset/>
<feGaussianBlur stdDeviation="30.5"/>
<feComposite in2="hardAlpha" operator="arithmetic" k2="-1" k3="1"/>
<feColorMatrix type="matrix" values="0 0 0 0 1 0 0 0 0 1 0 0 0 0 1 0 0 0 0.7 0"/>
<feBlend mode="normal" in2="shape" result="effect2_innerShadow_445_2752"/>
</filter>
</defs>
</svg>
