<svg width="199" height="206" viewBox="0 0 199 206" fill="none" xmlns="http://www.w3.org/2000/svg">
<path d="M45.8786 85.8343C45.8024 60.3093 45.7643 47.5468 53.6702 39.5935C61.5761 31.6403 74.3386 31.6021 99.8635 31.5259L105.104 31.5103C130.628 31.434 143.391 31.3959 151.344 39.3018C159.298 47.2077 159.336 59.9702 159.412 85.4952L159.428 90.7352C159.504 116.26 159.542 129.023 151.636 136.976C143.73 144.929 130.968 144.967 105.443 145.044L100.203 145.059C74.6776 145.135 61.9151 145.174 53.9619 137.268C46.0086 129.362 45.9705 116.599 45.8943 91.0742L45.8786 85.8343Z" fill="#DF46C7"/>
<g filter="url(#filter0_di_445_2739)">
<path d="M42.8981 80.5589C42.8219 55.0339 42.7838 42.2714 50.6897 34.3181C58.5956 26.3649 71.3581 26.3268 96.8831 26.2505L102.123 26.2349C127.648 26.1586 140.41 26.1205 148.364 34.0264C156.317 41.9323 156.355 54.6948 156.431 80.2198L156.447 85.4598C156.523 110.985 156.561 123.747 148.655 131.701C140.75 139.654 127.987 139.692 102.462 139.768L97.2221 139.784C71.6972 139.86 58.9347 139.898 50.9814 131.992C43.0281 124.086 42.99 111.324 42.9138 85.7989L42.8981 80.5589Z" fill="#EE68D9"/>
</g>
<g clip-path="url(#clip0_445_2739)">
<path d="M122.037 74.4141C121.967 71.9652 121.606 70.2901 121.063 68.8226C120.511 67.2831 119.629 65.8853 118.479 64.7262C117.35 63.5463 115.975 62.6284 114.45 62.0375C112.997 61.4566 111.332 61.0536 108.885 60.921C106.435 60.7873 105.651 60.7538 99.4054 60.6992C93.1594 60.6447 92.3753 60.6646 89.9207 60.7547C87.4706 60.8453 85.7925 61.2195 84.3198 61.7752C82.7754 62.3391 81.37 63.2323 80.2012 64.3921C79.0117 65.5304 78.0824 66.9125 77.4788 68.4419C76.8859 69.8999 76.4691 71.5682 76.3164 74.0147C76.1626 76.4666 76.1226 77.2495 76.0169 83.4949C75.9111 89.7406 75.9245 90.5244 75.9953 92.9778C76.0655 95.4263 76.426 97.1014 76.9698 98.5693C77.5211 100.108 78.403 101.507 79.5536 102.665C80.6824 103.845 82.0575 104.763 83.5823 105.353C85.0354 105.935 86.7007 106.338 89.147 106.471C91.5981 106.605 92.381 106.638 98.627 106.692C104.873 106.747 105.657 106.727 108.112 106.637C110.562 106.546 112.24 106.172 113.713 105.616C116.822 104.449 119.306 102.028 120.553 98.9496C121.146 97.4917 121.563 95.8234 121.716 93.3768C121.869 90.925 121.909 90.142 122.015 83.8967C122.121 77.651 122.107 76.8675 122.037 74.4141ZM117.579 93.1523C117.439 95.3936 117.044 96.608 116.715 97.4155C115.908 99.4145 114.296 100.986 112.277 101.742C111.461 102.05 110.237 102.414 107.993 102.496C105.566 102.586 104.838 102.603 98.6968 102.549C92.555 102.496 91.8283 102.466 89.4052 102.334C87.1647 102.212 85.9533 101.827 85.148 101.505C84.1555 101.128 83.2617 100.532 82.5328 99.7616C81.7814 99.0131 81.2088 98.1048 80.8569 97.1025C80.5558 96.2896 80.2016 95.0687 80.1375 92.8255C80.068 90.3998 80.0568 89.6722 80.1608 83.5318C80.2647 77.391 80.3006 76.6641 80.4522 74.24C80.5926 71.9986 80.9877 70.7843 81.3162 69.9768C81.7019 68.981 82.3054 68.0825 83.0816 67.3474C83.8364 66.59 84.75 66.0101 85.7554 65.6504C86.5711 65.3423 87.7952 64.9785 90.0394 64.8956C92.4662 64.8063 93.1941 64.7891 99.3352 64.8427L99.3349 64.8427C105.476 64.8963 106.203 64.9261 108.627 65.0582C110.867 65.1799 112.078 65.5653 112.884 65.8871C113.876 66.2646 114.77 66.8603 115.499 67.6303C116.25 68.3788 116.823 69.2875 117.174 70.2897C117.476 71.1027 117.83 72.3236 117.894 74.5667C117.964 76.9924 117.975 77.7201 117.871 83.8605C117.767 90.0013 117.731 90.7281 117.579 93.1523Z" fill="white"/>
<path d="M99.2164 71.8872C92.6938 71.8303 87.3167 77.0716 87.2063 83.5934C87.0959 90.1153 92.294 95.4485 98.8165 95.5054C105.339 95.5623 110.717 90.3214 110.827 83.7996C110.937 77.2777 105.739 71.9442 99.2164 71.8872ZM98.8867 91.3619C94.6529 91.3246 91.2785 87.8629 91.3505 83.6292C91.4222 79.396 94.9125 75.9937 99.1466 76.0307C103.381 76.068 106.755 79.5298 106.683 83.7631C106.611 87.9967 103.121 91.3989 98.8867 91.3619Z" fill="white"/>
<path d="M114.262 71.5502C114.236 73.0742 112.98 74.2989 111.456 74.2856C109.931 74.2723 108.717 73.026 108.742 71.502C108.768 69.9777 110.025 68.753 111.549 68.7663C113.073 68.7796 114.288 70.0259 114.262 71.5502Z" fill="white"/>
</g>
<defs>
<filter id="filter0_di_445_2739" x="0.882812" y="8.22119" width="197.578" height="197.577" filterUnits="userSpaceOnUse" color-interpolation-filters="sRGB">
<feFlood flood-opacity="0" result="BackgroundImageFix"/>
<feColorMatrix in="SourceAlpha" type="matrix" values="0 0 0 0 0 0 0 0 0 0 0 0 0 0 0 0 0 0 127 0" result="hardAlpha"/>
<feMorphology radius="23" operator="erode" in="SourceAlpha" result="effect1_dropShadow_445_2739"/>
<feOffset dy="24"/>
<feGaussianBlur stdDeviation="32.5"/>
<feComposite in2="hardAlpha" operator="out"/>
<feColorMatrix type="matrix" values="0 0 0 0 0.588235 0 0 0 0 0.164706 0 0 0 0 0.917647 0 0 0 0.22 0"/>
<feBlend mode="normal" in2="BackgroundImageFix" result="effect1_dropShadow_445_2739"/>
<feBlend mode="normal" in="SourceGraphic" in2="effect1_dropShadow_445_2739" result="shape"/>
<feColorMatrix in="SourceAlpha" type="matrix" values="0 0 0 0 0 0 0 0 0 0 0 0 0 0 0 0 0 0 127 0" result="hardAlpha"/>
<feOffset/>
<feGaussianBlur stdDeviation="30.5"/>
<feComposite in2="hardAlpha" operator="arithmetic" k2="-1" k3="1"/>
<feColorMatrix type="matrix" values="0 0 0 0 1 0 0 0 0 1 0 0 0 0 1 0 0 0 0.7 0"/>
<feBlend mode="normal" in2="shape" result="effect2_innerShadow_445_2739"/>
</filter>
<clipPath id="clip0_445_2739">
<rect width="46" height="46" fill="white" transform="matrix(0.999962 0.00872654 -0.0169289 0.999857 76.4062 60.4985)"/>
</clipPath>
</defs>
</svg>
