<svg width="190" height="40" viewBox="0 0 190 40" fill="none" xmlns="http://www.w3.org/2000/svg">
<path fill-rule="evenodd" clip-rule="evenodd" d="M127.207 19.7747C126.574 19.1926 125.849 18.6944 125.03 18.2734C123.454 17.4633 121.583 17.0821 119.465 17.0821H112.423V32.3759L108.681 35.5659V13.9845H119.662C122.42 13.9845 124.882 14.5087 126.999 15.5571C128.08 16.0918 129.044 16.7381 129.881 17.496L127.207 19.7747ZM4.2842 38.622C6.10625 39.1939 8.02675 39.4798 9.9965 39.4798C12.311 39.4798 14.1822 39.1462 15.6103 38.4791C17.1368 37.8119 18.2202 36.9541 18.9589 35.8581C19.6975 34.762 20.0422 33.5706 20.0422 32.284C20.0422 30.9496 19.796 29.9012 19.2051 29.0434C18.6634 28.2333 17.8755 27.5661 16.9399 27.0419C16.0042 26.5177 14.9701 26.1364 13.8375 25.8029C13.6424 25.7536 13.4487 25.7043 13.256 25.6553C12.3301 25.4198 11.4264 25.1899 10.4889 24.9927C9.35633 24.7545 8.32221 24.4685 7.38658 24.135C6.45095 23.849 5.7123 23.4201 5.12137 22.8959C4.57967 22.3241 4.2842 21.6569 4.2842 20.7515C4.2842 20.0366 4.48118 19.3695 4.9244 18.75C5.36759 18.1781 6.057 17.7016 6.99263 17.3203C7.92826 16.9867 9.11011 16.7961 10.5874 16.7961C11.72 16.7961 12.9511 16.9867 14.1822 17.3203C15.4133 17.6063 16.5952 18.1305 17.7278 18.8453L18.9589 15.986C17.8262 15.2712 16.5459 14.6993 15.0686 14.3181C13.5913 13.9368 12.114 13.7462 10.5874 13.7462C8.27297 13.7462 6.40171 14.0798 4.9244 14.747C3.4963 15.3665 2.41294 16.2719 1.67428 17.368C0.984872 18.464 0.640166 19.6554 0.640166 20.9421C0.640166 22.3241 0.886385 23.4201 1.47731 24.2779C2.01899 25.088 2.75765 25.7552 3.69328 26.2794C4.62894 26.756 5.66305 27.1849 6.79566 27.5185C7.92826 27.8044 9.06087 28.0903 10.1935 28.3286C11.3261 28.5669 12.311 28.8528 13.2466 29.1864C14.1822 29.4723 14.9209 29.9012 15.5118 30.4254C16.1027 30.9496 16.3982 31.6644 16.3982 32.5222C16.3982 33.237 16.152 33.9042 15.7088 34.5237C15.2656 35.0956 14.5762 35.5721 13.6405 35.9057C12.7049 36.2393 11.4738 36.4299 9.94726 36.4299C8.32221 36.4299 6.69717 36.1916 5.17062 35.6198C3.64403 35.0479 2.3637 34.3808 1.37882 33.523L0 36.3346C1.03412 37.24 2.46218 38.0025 4.2842 38.622ZM27.4288 38.1455C28.9553 38.9556 30.7281 39.3845 32.6978 39.3845C34.6676 39.3845 36.4403 38.9556 37.9669 38.1455C39.5427 37.2877 40.7246 36.144 41.611 34.6667C42.4973 33.1894 42.9405 31.5215 42.9405 29.6153C42.9405 27.6614 42.4973 25.9935 41.611 24.5638C40.7246 23.0865 39.5427 21.9428 37.9669 21.1327C36.3911 20.3226 34.6676 19.8937 32.6978 19.8937C30.7281 19.8937 28.9553 20.2749 27.4288 21.1327C25.9022 21.9428 24.6711 23.0865 23.7847 24.5638C22.8983 26.0411 22.4552 27.7091 22.4552 29.6153C22.4552 31.5215 22.8983 33.1894 23.7847 34.6667C24.6711 36.144 25.9022 37.2877 27.4288 38.1455ZM36.0957 35.5721C35.1108 36.0963 33.9782 36.3823 32.6978 36.3823C31.4668 36.3823 30.3342 36.0963 29.3 35.5721C28.3152 35.0479 27.5273 34.2378 26.9363 33.237C26.3454 32.1886 26.0499 30.9973 26.0499 29.6629C26.0499 28.281 26.3454 27.1372 26.9363 26.1364C27.5273 25.1357 28.3152 24.3732 29.3 23.8014C30.2849 23.2772 31.4175 22.9912 32.6978 22.9912C33.9782 22.9912 35.1108 23.2295 36.0957 23.8014C37.0805 24.3256 37.8684 25.1357 38.4593 26.1364C39.001 27.1372 39.2965 28.281 39.2965 29.6629C39.2965 30.9973 39.0502 32.1886 38.4593 33.237C37.9176 34.2378 37.1298 35.0003 36.0957 35.5721ZM50.3269 38.1455C51.9519 38.9556 53.7247 39.3845 55.7437 39.3845C57.5165 39.3845 59.0923 39.0509 60.5203 38.2884C61.8992 37.5736 62.9825 36.5729 63.7704 35.2385L61.062 33.5706C60.4219 34.5237 59.634 35.1909 58.6983 35.6674C57.8119 36.0963 56.8271 36.3346 55.7437 36.3346C54.4634 36.3346 53.3308 36.0963 52.2966 35.5245C51.2625 35.0003 50.4746 34.1901 49.8837 33.1894C49.2928 32.1886 48.9973 30.9973 48.9973 29.6153C48.9973 28.2333 49.2928 27.0896 49.8837 26.0888C50.4746 25.088 51.2625 24.3256 52.2966 23.7537C53.2815 23.2295 54.4634 22.9436 55.7437 22.9436C56.7778 22.9436 57.7627 23.1342 58.6983 23.6108C59.634 24.0396 60.4219 24.7068 61.062 25.6599L63.7704 23.9443C63.0318 22.61 61.9484 21.6093 60.5203 20.9421C59.0923 20.2273 57.5165 19.8937 55.7437 19.8937C53.7247 19.8937 51.9027 20.2749 50.3269 21.1327C48.7513 21.9428 47.5202 23.0865 46.6338 24.5638C45.7474 26.0411 45.3042 27.7091 45.3042 29.6153C45.3042 31.5215 45.7474 33.1894 46.6338 34.6667C47.5202 36.144 48.7513 37.2877 50.3269 38.1455ZM71.0093 20.132H67.4145V39.1939H71.0093V20.132ZM67.4145 15.7477C67.9069 16.1766 68.4978 16.4149 69.1872 16.4149C69.9259 16.4149 70.4676 16.2243 70.9108 15.7477C71.354 15.2712 71.6002 14.747 71.6002 14.0798C71.6002 13.4603 71.4032 12.9838 70.9108 12.5549C70.4676 12.126 69.9259 11.8877 69.1872 11.8877C68.4486 11.8877 67.9069 12.126 67.4145 12.5549C66.9713 12.9838 66.725 13.508 66.725 14.1751C66.725 14.7946 66.9713 15.3188 67.4145 15.7477ZM89.2787 36.6286V39.1939H92.6765V27.6138C92.6765 24.9927 91.9378 23.0865 90.4605 21.7999C88.9832 20.5132 86.915 19.8937 84.2066 19.8937C82.68 19.8937 81.1535 20.132 79.7254 20.5608C78.2973 20.9897 77.1155 21.5616 76.0814 22.3717L77.5587 24.9451C78.2973 24.3256 79.233 23.849 80.3656 23.4678C81.4982 23.0865 82.6308 22.8959 83.8126 22.8959C85.5854 22.8959 86.8657 23.3248 87.7521 24.135C88.6385 24.9451 89.0817 26.0411 89.0817 27.5185V28.1856H83.4679C81.4982 28.1856 79.9716 28.4239 78.7897 28.9481C77.6079 29.4247 76.82 30.0918 76.2783 30.9496C75.7859 31.8074 75.5397 32.7128 75.5397 33.7613C75.5397 34.8097 75.8351 35.8104 76.4261 36.6682C77.017 37.526 77.8541 38.1931 78.9375 38.6697C80.0701 39.1462 81.3504 39.3845 82.8277 39.3845C84.6005 39.3845 86.1271 39.0509 87.2597 38.4314C88.1426 37.953 88.7976 37.352 89.2787 36.6286ZM89.0817 33.3324V30.6637H83.5664C81.7936 30.6637 80.5625 30.9496 79.9716 31.5215C79.3807 32.0933 79.036 32.8082 79.036 33.6183C79.036 34.5714 79.4299 35.3339 80.1686 35.9057C80.9565 36.4776 81.9906 36.7158 83.3694 36.7158C84.699 36.7158 85.8809 36.4299 86.8657 35.8581C87.8998 35.2862 88.6385 34.4284 89.0817 33.3324ZM98.5365 12.4596V39.1939H102.131V12.4596H98.5365Z" fill="#182149"/>
<path d="M150.471 39.29V35.2492L150.274 34.4886V27.643C150.274 26.1691 149.831 25.0757 148.945 24.2675C148.059 23.4594 146.779 23.0315 145.007 23.0315C143.826 23.0315 142.693 23.2217 141.561 23.602C140.429 23.9823 139.493 24.4577 138.755 25.0757L137.278 22.5086C138.312 21.7004 139.493 21.1299 140.921 20.7021C142.349 20.2742 143.875 20.0366 145.401 20.0366C148.108 20.0366 150.176 20.6546 151.653 21.9381C153.13 23.2217 153.868 25.1232 153.868 27.7381V39.29H150.471ZM143.973 39.4802C142.496 39.4802 141.216 39.2425 140.084 38.7671C139.001 38.2917 138.164 37.6262 137.574 36.7704C136.983 35.9147 136.688 34.9164 136.688 33.8706C136.688 32.8247 136.934 31.9215 137.426 31.0658C137.967 30.2101 138.755 29.5445 139.937 29.0691C141.118 28.5462 142.644 28.3085 144.613 28.3085H150.865V30.7805H144.761C142.989 30.7805 141.758 31.0658 141.167 31.6362C140.527 32.2067 140.232 32.9198 140.232 33.728C140.232 34.6787 140.626 35.4394 141.364 36.0098C142.152 36.5803 143.186 36.818 144.564 36.818C145.893 36.818 147.075 36.5328 148.059 35.9623C149.093 35.3918 149.831 34.5361 150.274 33.4427L150.963 35.8197C150.471 36.9606 149.684 37.8638 148.453 38.5294C147.271 39.1474 145.795 39.4802 143.973 39.4802ZM166.47 39.4802C164.501 39.4802 162.926 38.9572 161.843 37.9589C160.76 36.9131 160.218 35.4394 160.218 33.5378V16.0908H163.812V33.3952C163.812 34.441 164.058 35.2017 164.6 35.7721C165.141 36.3426 165.929 36.5803 166.913 36.5803C168.045 36.5803 168.981 36.2951 169.719 35.6771L170.851 38.1491C170.31 38.6245 169.67 38.9572 168.882 39.1474C168.045 39.3851 167.307 39.4802 166.47 39.4802ZM156.871 23.079V20.2267H169.424V23.079H156.871ZM186.604 39.29V35.2492L186.407 34.4886V27.643C186.407 26.1691 185.964 25.0757 185.078 24.2675C184.192 23.4594 182.912 23.0315 181.14 23.0315C179.959 23.0315 178.826 23.2217 177.694 23.602C176.562 23.9823 175.626 24.4577 174.888 25.0757L173.411 22.5086C174.445 21.7004 175.626 21.1299 177.054 20.7021C178.482 20.2742 180.008 20.0366 181.534 20.0366C184.241 20.0366 186.309 20.6546 187.786 21.9381C189.263 23.2217 190.001 25.1232 190.001 27.7381V39.29H186.604ZM180.106 39.4802C178.629 39.4802 177.349 39.2425 176.217 38.7671C175.134 38.2917 174.297 37.6262 173.707 36.7704C173.116 35.9147 172.821 34.9164 172.821 33.8706C172.821 32.8247 173.067 31.9215 173.559 31.0658C174.1 30.2101 174.888 29.5445 176.07 29.0691C177.251 28.5462 178.777 28.3085 180.746 28.3085H186.998V30.7805H180.894C179.122 30.7805 177.891 31.0658 177.3 31.6362C176.709 32.2067 176.365 32.9198 176.365 33.728C176.365 34.6787 176.759 35.4394 177.497 36.0098C178.285 36.5803 179.319 36.818 180.697 36.818C182.026 36.818 183.208 36.5328 184.192 35.9623C185.226 35.3918 185.964 34.5361 186.407 33.4427L187.097 35.8197C186.604 36.9606 185.817 37.8638 184.586 38.5294C183.404 39.1474 181.928 39.4802 180.106 39.4802Z" fill="#182149"/>
<path d="M115.852 36.0837C130.53 37.6548 131.459 26.8477 129.013 22.3247C129.845 21.3725 131.557 19.5158 131.606 19.5634C131.655 19.611 133.612 22.4199 133.661 25.9429C133.71 29.609 132.976 33.7985 127.888 37.1311C127.398 37.4643 125.931 38.3213 123.093 38.9402C120.304 39.5115 114.726 39.2258 112.867 39.2258L115.852 36.0837Z" fill="#182149"/>
<path d="M137.062 13.7951V17.735C138.796 15.504 150.485 0.741211 150.485 0.741211L137.062 13.7951Z" fill="#182149"/>
<path d="M137.062 11.3399L144.625 4.94434L138.665 8.76256C138.264 9.0012 137.663 9.43075 137.062 9.8603V11.3399Z" fill="#182149"/>
</svg>
