<svg width="294" height="156" viewBox="0 0 294 156" fill="none" xmlns="http://www.w3.org/2000/svg">
<rect width="274" height="111" rx="30" transform="matrix(0.989651 0.143493 -0.153676 0.988121 21.7969 6.25391)" fill="#27AAF4"/>
<rect width="274" height="111" rx="30" transform="matrix(0.989651 0.143493 -0.153676 0.988121 21.7969 6.25391)" fill="url(#paint0_radial_445_1574)"/>
<rect width="274" height="111" rx="30" transform="matrix(0.989651 0.143493 -0.153676 0.988121 21.7969 6.25391)" fill="url(#paint1_radial_445_1574)"/>
<g filter="url(#filter0_i_445_1574)">
<rect width="274" height="111" rx="30" transform="matrix(0.989651 0.143493 -0.153676 0.988121 17.8438 0.811035)" fill="#27AAF4"/>
<rect width="274" height="111" rx="30" transform="matrix(0.989651 0.143493 -0.153676 0.988121 17.8438 0.811035)" fill="url(#paint2_radial_445_1574)"/>
<rect width="274" height="111" rx="30" transform="matrix(0.989651 0.143493 -0.153676 0.988121 17.8438 0.811035)" fill="url(#paint3_radial_445_1574)"/>
</g>
<path d="M45.5878 28.5578L47.0723 28.7731L44.8409 43.1206L42.921 42.8422L44.4915 32.7436L40.2163 32.1237L40.4775 30.4439L40.814 30.4927C43.6444 30.9031 45.1238 30.3699 45.5878 28.5578ZM51.7545 38.8689L51.9666 37.5053L58.8348 38.5012L58.6227 39.8648L51.7545 38.8689ZM61.8594 34.7162L63.7793 34.9946L63.1185 39.2435L67.3146 39.8519C69.9075 40.2279 71.1455 41.3774 70.7982 43.6105C70.4724 45.7053 68.8356 46.5997 66.3219 46.2352L60.2059 45.3484L61.8594 34.7162ZM62.8665 40.864L62.3778 44.0063L66.4156 44.5917C67.8605 44.8012 68.5905 44.4019 68.7595 43.3149C68.9316 42.2082 68.4679 41.6762 66.8845 41.4466L62.8665 40.864ZM72.8734 47.1851L74.5269 36.5529L76.4469 36.8313L74.7933 47.4635L72.8734 47.1851ZM81.2142 37.5225L79.9264 45.803L87.7063 38.4638L89.844 38.7738L88.1904 49.406L86.2705 49.1276L87.5552 40.8669L79.7586 48.1834L77.6407 47.8763L79.2943 37.2442L81.2142 37.5225ZM81.933 33.1608L83.0414 33.3215C82.9564 34.2589 83.7668 35.1646 85.0929 35.3568C86.4388 35.552 87.5088 34.919 87.7126 33.9988L88.8408 34.1624C88.3294 36.1494 87.0536 36.9344 84.916 36.6245C82.7981 36.3174 81.8175 35.2052 81.933 33.1608ZM99.2999 40.1448L102.012 40.538L104.472 49.4428L109.533 41.6286L112.245 42.0217L110.591 52.6539L108.75 52.387L109.844 45.3516L110.296 43.3559L105.055 51.5482L103.353 51.3014L100.756 41.9726L100.581 44.0085L99.4871 51.0439L97.6464 50.777L99.2999 40.1448ZM125.149 49.7329L115.55 48.341C115.227 50.4161 116.539 52.0007 118.815 52.3307C120.497 52.5747 121.866 52.1062 122.482 51.0033L124.719 51.3276C123.61 53.511 121.369 54.5197 118.538 54.1093C114.956 53.5899 113.037 51.0889 113.569 47.67C114.104 44.2313 116.728 42.3282 120.29 42.8448C123.932 43.3728 125.758 45.82 125.208 49.3574L125.149 49.7329ZM115.801 46.9832L123.303 48.0709C123.286 46.2294 122.072 44.9218 120.014 44.6234C117.975 44.3278 116.401 45.211 115.801 46.9832ZM138.018 49.376L136.019 49.0861C135.846 47.7273 134.801 46.7675 133.238 46.5407C130.803 46.1878 129.085 47.4745 128.71 49.8855C128.338 52.2767 129.664 53.9037 131.9 54.228C133.662 54.4834 135.093 53.7411 135.593 52.2172L137.612 52.5099C136.739 55.1316 134.454 56.417 131.545 55.9951C128.16 55.5044 126.149 52.9495 126.674 49.5701C127.2 46.1907 129.892 44.2369 133.336 44.7363C136.147 45.1438 137.932 46.9385 138.018 49.376ZM150.36 47.5481L148.706 58.1803L146.786 57.9019L147.447 53.653L144.201 53.1824L140.809 57.0353L138.651 56.7224L142.089 52.8358C140.546 52.3493 139.488 51.0844 139.77 49.2663C140.102 47.1319 141.789 46.3055 144.343 46.6757L150.36 47.5481ZM147.699 52.0325L148.188 48.8903L144.13 48.302C142.665 48.0896 141.975 48.4947 141.806 49.5816C141.634 50.6883 142.098 51.2203 143.701 51.4528L147.699 52.0325ZM155.129 48.2396L153.727 57.2513L160.219 58.1926L161.621 49.1809L163.541 49.4593L162.139 58.471L163.228 58.6288L162.487 63.3916L160.666 63.1276L161.155 59.9853L151.555 58.5934L153.209 47.9613L155.129 48.2396Z" fill="white"/>
<path d="M36.6445 59.8848L53.8406 62.3781L53.3735 65.382L39.4392 63.3616L38.4901 69.4643L45.7422 70.5158C51.411 71.3377 53.8825 74.1857 53.1596 78.8338C52.4416 83.4503 49.352 85.201 43.6833 84.3791L33.0743 82.8408L36.6445 59.8848ZM38.0229 72.4682L36.8033 80.3099L43.0421 81.2145C47.3174 81.8344 49.4158 81.4596 49.9125 78.266C50.4091 75.0724 48.5053 73.988 44.0716 73.3452L38.0229 72.4682ZM56.2692 86.2039L59.8394 63.2479L78.1123 65.8974L77.6452 68.9012L62.6341 66.7247L61.5916 73.4282L75.6842 75.4715L75.217 78.4754L61.1244 76.4321L59.9983 83.673L75.231 85.8816L74.7638 88.8855L56.2692 86.2039ZM103.249 83.9302C101.757 89.5661 96.6436 92.6723 90.1198 91.7264C82.2976 90.5922 78.2899 85.1288 79.4258 77.8246C80.5618 70.5205 86.0547 66.4346 93.9086 67.5734C100.337 68.5055 104.237 72.7892 103.886 78.1702L100.497 77.6789C100.434 73.9192 97.8019 71.2742 93.3999 70.6359C87.5728 69.791 83.6897 72.6876 82.8144 78.316C81.9391 83.9443 84.8014 87.8189 90.6285 88.6638C95.1572 89.3205 98.7224 87.2184 99.8607 83.4389L103.249 83.9302ZM109.198 70.4046L129.72 73.3801L126.149 96.3361L122.888 95.8631L125.991 75.911L111.993 73.8814L108.89 93.8336L105.628 93.3606L109.198 70.4046ZM137.081 74.4474L156.558 77.2714L152.987 100.227L149.725 99.7544L152.828 79.8023L139.876 77.9243L138.435 87.1889C137.048 96.1057 134.361 97.9793 131.035 97.4972C130.339 97.3962 129.562 97.1865 128.853 96.9544L129.256 94.3616C129.531 94.4661 130.092 94.612 130.757 94.7085C133.322 95.0804 134.337 92.0913 135.331 85.7041L137.081 74.4474ZM155.606 100.607L170.102 79.2352L173.49 79.7265L180.149 104.166L176.76 103.674L174.865 96.7066L163.116 95.003L159.058 101.108L155.606 100.607ZM164.945 92.1966L174.002 93.5098L171.12 83.101L164.945 92.1966ZM181.134 80.8348L201.94 83.8515L201.473 86.8554L192.701 85.5835L189.598 105.536L186.336 105.063L189.439 85.1106L180.667 83.8386L181.134 80.8348ZM207.838 84.7066L206.422 93.8132L220.419 95.8427L221.835 86.7362L225.097 87.2092L221.527 110.165L218.265 109.692L219.952 98.8466L205.954 96.8171L204.268 107.663L201.006 107.19L204.576 84.2337L207.838 84.7066ZM227.317 99.2678C228.453 91.9636 233.946 87.8778 241.8 89.0165C249.622 90.1507 253.63 95.6141 252.494 102.918C251.358 110.222 245.865 114.308 238.011 113.17C230.189 112.035 226.181 106.572 227.317 99.2678ZM230.705 99.7591C229.83 105.387 232.661 109.258 238.52 110.107C244.378 110.956 248.235 108.024 249.105 102.427C249.98 96.7986 247.15 92.9286 241.291 92.0791C235.464 91.2342 231.581 94.1308 230.705 99.7591Z" fill="white"/>
<defs>
<filter id="filter0_i_445_1574" x="5.38281" y="5.15479" width="279.031" height="144.311" filterUnits="userSpaceOnUse" color-interpolation-filters="sRGB">
<feFlood flood-opacity="0" result="BackgroundImageFix"/>
<feBlend mode="normal" in="SourceGraphic" in2="BackgroundImageFix" result="shape"/>
<feColorMatrix in="SourceAlpha" type="matrix" values="0 0 0 0 0 0 0 0 0 0 0 0 0 0 0 0 0 0 127 0" result="hardAlpha"/>
<feOffset dy="4"/>
<feGaussianBlur stdDeviation="37.5"/>
<feComposite in2="hardAlpha" operator="arithmetic" k2="-1" k3="1"/>
<feColorMatrix type="matrix" values="0 0 0 0 1 0 0 0 0 1 0 0 0 0 1 0 0 0 0.4 0"/>
<feBlend mode="normal" in2="shape" result="effect1_innerShadow_445_1574"/>
</filter>
<radialGradient id="paint0_radial_445_1574" cx="0" cy="0" r="1" gradientUnits="userSpaceOnUse" gradientTransform="translate(257.541 25.8869) rotate(144.774) scale(147.561 161.075)">
<stop stop-color="#6F42EF"/>
<stop offset="1" stop-color="#DB14EC" stop-opacity="0"/>
</radialGradient>
<radialGradient id="paint1_radial_445_1574" cx="0" cy="0" r="1" gradientUnits="userSpaceOnUse" gradientTransform="translate(9.19788 94.5265) rotate(20.8596) scale(165.777 110.529)">
<stop stop-color="#10E8F5"/>
<stop offset="1" stop-color="#10E8F5" stop-opacity="0"/>
</radialGradient>
<radialGradient id="paint2_radial_445_1574" cx="0" cy="0" r="1" gradientUnits="userSpaceOnUse" gradientTransform="translate(257.541 25.8869) rotate(144.774) scale(147.561 161.075)">
<stop stop-color="#6F42EF"/>
<stop offset="1" stop-color="#DB14EC" stop-opacity="0"/>
</radialGradient>
<radialGradient id="paint3_radial_445_1574" cx="0" cy="0" r="1" gradientUnits="userSpaceOnUse" gradientTransform="translate(9.19788 94.5265) rotate(20.8596) scale(165.777 110.529)">
<stop stop-color="#10E8F5"/>
<stop offset="1" stop-color="#10E8F5" stop-opacity="0"/>
</radialGradient>
</defs>
</svg>
