<svg width="199" height="207" viewBox="0 0 199 207" fill="none" xmlns="http://www.w3.org/2000/svg">
<path d="M46.7684 84.7544C46.9169 59.2297 46.9912 46.4674 54.9668 38.584C62.9424 30.7007 75.7048 30.7749 101.229 30.9235L106.469 30.954C131.994 31.1025 144.756 31.1767 152.64 39.1524C160.523 47.128 160.449 59.8903 160.3 85.415L160.27 90.6549C160.121 116.18 160.047 128.942 152.071 136.825C144.096 144.709 131.333 144.634 105.809 144.486L100.569 144.455C75.0441 144.307 62.2818 144.233 54.3984 136.257C46.5151 128.281 46.5894 115.519 46.7379 89.9943L46.7684 84.7544Z" fill="url(#paint0_linear_445_1937)"/>
<path d="M46.7684 84.7544C46.9169 59.2297 46.9912 46.4674 54.9668 38.584C62.9424 30.7007 75.7048 30.7749 101.229 30.9235L106.469 30.954C131.994 31.1025 144.756 31.1767 152.64 39.1524C160.523 47.128 160.449 59.8903 160.3 85.415L160.27 90.6549C160.121 116.18 160.047 128.942 152.071 136.825C144.096 144.709 131.333 144.634 105.809 144.486L100.569 144.455C75.0441 144.307 62.2818 144.233 54.3984 136.257C46.5151 128.281 46.5894 115.519 46.7379 89.9943L46.7684 84.7544Z" fill="#EEAD68"/>
<g filter="url(#filter0_di_445_1937)">
<path d="M42.5691 80.3911C42.7177 54.8664 42.7919 42.1041 50.7676 34.2208C58.7432 26.3374 71.5055 26.4117 97.0302 26.5602L102.27 26.5907C127.795 26.7392 140.557 26.8135 148.44 34.7891C156.324 42.7647 156.25 55.5271 156.101 81.0517L156.071 86.2916C155.922 111.816 155.848 124.579 147.872 132.462C139.896 140.345 127.134 140.271 101.609 140.123L96.3695 140.092C70.8449 139.944 58.0826 139.869 50.1992 131.894C42.3159 123.918 42.3901 111.156 42.5387 85.631L42.5691 80.3911Z" fill="url(#paint1_linear_445_1937)"/>
<path d="M42.5691 80.3911C42.7177 54.8664 42.7919 42.1041 50.7676 34.2208C58.7432 26.3374 71.5055 26.4117 97.0302 26.5602L102.27 26.5907C127.795 26.7392 140.557 26.8135 148.44 34.7891C156.324 42.7647 156.25 55.5271 156.101 81.0517L156.071 86.2916C155.922 111.816 155.848 124.579 147.872 132.462C139.896 140.345 127.134 140.271 101.609 140.123L96.3695 140.092C70.8449 139.944 58.0826 139.869 50.1992 131.894C42.3159 123.918 42.3901 111.156 42.5387 85.631L42.5691 80.3911Z" fill="#EEAD68"/>
</g>
<path d="M90.9745 63.6797H87.3026C83.0702 63.6797 80.8477 65.9022 80.8477 70.1153V73.7873C80.8477 78.0003 83.0702 80.2229 87.2833 80.2229H90.9552C95.1683 80.2229 97.3908 78.0003 97.3908 73.7873V70.1153C97.4101 65.9022 95.1876 63.6797 90.9745 63.6797Z" fill="white"/>
<path d="M113.065 63.6797H109.393C105.18 63.6797 102.957 65.9022 102.957 70.1153V73.7873C102.957 78.0003 105.18 80.2229 109.393 80.2229H113.065C117.278 80.2229 119.5 78.0003 119.5 73.7873V70.1153C119.5 65.9022 117.278 63.6797 113.065 63.6797Z" fill="white"/>
<path d="M113.065 85.7695H109.393C105.18 85.7695 102.957 87.992 102.957 92.2051V95.8771C102.957 100.09 105.18 102.313 109.393 102.313H113.065C117.278 102.313 119.5 100.09 119.5 95.8771V92.2051C119.5 87.992 117.278 85.7695 113.065 85.7695Z" fill="white"/>
<path d="M90.9745 85.7695H87.3026C83.0702 85.7695 80.8477 87.992 80.8477 92.2051V95.8771C80.8477 100.11 83.0702 102.332 87.2833 102.332H90.9552C95.1683 102.332 97.3908 100.11 97.3908 95.8964V92.2245C97.4101 87.992 95.1876 85.7695 90.9745 85.7695Z" fill="white"/>
<defs>
<filter id="filter0_di_445_1937" x="0.5" y="8.52344" width="197.637" height="197.636" filterUnits="userSpaceOnUse" color-interpolation-filters="sRGB">
<feFlood flood-opacity="0" result="BackgroundImageFix"/>
<feColorMatrix in="SourceAlpha" type="matrix" values="0 0 0 0 0 0 0 0 0 0 0 0 0 0 0 0 0 0 127 0" result="hardAlpha"/>
<feMorphology radius="23" operator="erode" in="SourceAlpha" result="effect1_dropShadow_445_1937"/>
<feOffset dy="24"/>
<feGaussianBlur stdDeviation="32.5"/>
<feComposite in2="hardAlpha" operator="out"/>
<feColorMatrix type="matrix" values="0 0 0 0 0.588235 0 0 0 0 0.164706 0 0 0 0 0.917647 0 0 0 0.22 0"/>
<feBlend mode="normal" in2="BackgroundImageFix" result="effect1_dropShadow_445_1937"/>
<feBlend mode="normal" in="SourceGraphic" in2="effect1_dropShadow_445_1937" result="shape"/>
<feColorMatrix in="SourceAlpha" type="matrix" values="0 0 0 0 0 0 0 0 0 0 0 0 0 0 0 0 0 0 127 0" result="hardAlpha"/>
<feOffset/>
<feGaussianBlur stdDeviation="30.5"/>
<feComposite in2="hardAlpha" operator="arithmetic" k2="-1" k3="1"/>
<feColorMatrix type="matrix" values="0 0 0 0 1 0 0 0 0 1 0 0 0 0 1 0 0 0 0.7 0"/>
<feBlend mode="normal" in2="shape" result="effect2_innerShadow_445_1937"/>
</filter>
<linearGradient id="paint0_linear_445_1937" x1="141.506" y1="163.47" x2="53.2399" y2="23.2202" gradientUnits="userSpaceOnUse">
<stop stop-color="#0B85DA"/>
<stop offset="1" stop-color="#03C3FF"/>
</linearGradient>
<linearGradient id="paint1_linear_445_1937" x1="137.306" y1="159.107" x2="49.0407" y2="18.8569" gradientUnits="userSpaceOnUse">
<stop stop-color="#0B85DA"/>
<stop offset="1" stop-color="#03C3FF"/>
</linearGradient>
</defs>
</svg>
