<svg width="199" height="206" viewBox="0 0 199 206" fill="none" xmlns="http://www.w3.org/2000/svg">
<path d="M46.7753 84.4233C46.9104 58.8986 46.9779 46.1362 54.9494 38.2486C62.9209 30.3611 75.6832 30.4286 101.208 30.5637L106.448 30.5914C131.973 30.7265 144.735 30.7941 152.623 38.7655C160.51 46.737 160.443 59.4994 160.307 85.0241L160.28 90.264C160.145 115.789 160.077 128.551 152.106 136.439C144.134 144.326 131.372 144.259 105.847 144.124L100.607 144.096C75.0824 143.961 62.3201 143.893 54.4325 135.922C46.545 127.95 46.6125 115.188 46.7476 89.6632L46.7753 84.4233Z" fill="url(#paint0_linear_445_1961)"/>
<path d="M46.7753 84.4233C46.9104 58.8986 46.9779 46.1362 54.9494 38.2486C62.9209 30.3611 75.6832 30.4286 101.208 30.5637L106.448 30.5914C131.973 30.7265 144.735 30.7941 152.623 38.7655C160.51 46.737 160.443 59.4994 160.307 85.0241L160.28 90.264C160.145 115.789 160.077 128.551 152.106 136.439C144.134 144.326 131.372 144.259 105.847 144.124L100.607 144.096C75.0824 143.961 62.3201 143.893 54.4325 135.922C46.545 127.95 46.6125 115.188 46.7476 89.6632L46.7753 84.4233Z" fill="#EED042"/>
<g filter="url(#filter0_di_445_1961)">
<path d="M42.5683 80.061C42.7033 54.5362 42.7709 41.7739 50.7424 33.8863C58.7138 25.9988 71.4762 26.0663 97.0009 26.2014L102.241 26.2291C127.766 26.3642 140.528 26.4317 148.416 34.4032C156.303 42.3747 156.236 55.1371 156.1 80.6618L156.073 85.9017C155.938 111.426 155.87 124.189 147.899 132.076C139.927 139.964 127.165 139.896 101.64 139.761L96.4001 139.734C70.8754 139.598 58.113 139.531 50.2255 131.559C42.3379 123.588 42.4055 110.826 42.5405 85.3009L42.5683 80.061Z" fill="url(#paint1_linear_445_1961)"/>
</g>
<path d="M92.6276 103.004C85.5109 103.004 79.7109 97.2042 79.7109 90.0876C79.7109 82.9709 85.5109 77.1709 92.6276 77.1709C99.7443 77.1709 105.544 82.9709 105.544 90.0876C105.544 97.2042 99.7443 103.004 92.6276 103.004ZM92.6276 79.6709C86.8776 79.6709 82.2109 84.3376 82.2109 90.0876C82.2109 95.8376 86.8776 100.504 92.6276 100.504C98.3776 100.504 103.044 95.8376 103.044 90.0876C103.044 84.3376 98.3776 79.6709 92.6276 79.6709Z" fill="white"/>
<path d="M92.6289 113.004C91.9456 113.004 91.3789 112.437 91.3789 111.754V101.754C91.3789 101.071 91.9456 100.504 92.6289 100.504C93.3122 100.504 93.8789 101.071 93.8789 101.754V111.754C93.8789 112.437 93.3122 113.004 92.6289 113.004Z" fill="white"/>
<path d="M97.6289 108.005H87.6289C86.9456 108.005 86.3789 107.438 86.3789 106.755C86.3789 106.072 86.9456 105.505 87.6289 105.505H97.6289C98.3122 105.505 98.8789 106.072 98.8789 106.755C98.8789 107.438 98.3122 108.005 97.6289 108.005Z" fill="white"/>
<path d="M102.714 92.1712C94.8969 92.1712 88.5469 85.8212 88.5469 78.0046C88.5469 70.1879 94.8969 63.8379 102.714 63.8379C110.53 63.8379 116.88 70.1879 116.88 78.0046C116.88 85.8212 110.53 92.1712 102.714 92.1712ZM102.714 66.3379C96.2802 66.3379 91.0469 71.5712 91.0469 78.0046C91.0469 84.4379 96.2802 89.6712 102.714 89.6712C109.147 89.6712 114.38 84.4379 114.38 78.0046C114.38 71.5712 109.147 66.3379 102.714 66.3379Z" fill="white"/>
<path d="M112.297 69.6713C111.98 69.6713 111.663 69.5546 111.413 69.3046C110.93 68.8213 110.93 68.0213 111.413 67.538L120.58 58.3713C121.063 57.888 121.863 57.888 122.347 58.3713C122.83 58.8546 122.83 59.6546 122.347 60.138L113.18 69.3046C112.93 69.5546 112.613 69.6713 112.297 69.6713Z" fill="white"/>
<path d="M121.462 71.3382C120.779 71.3382 120.212 70.7715 120.212 70.0882V60.5049H110.629C109.946 60.5049 109.379 59.9382 109.379 59.2549C109.379 58.5715 109.946 58.0049 110.629 58.0049H121.462C122.146 58.0049 122.712 58.5715 122.712 59.2549V70.0882C122.712 70.7715 122.146 71.3382 121.462 71.3382Z" fill="white"/>
<defs>
<filter id="filter0_di_445_1961" x="0.507812" y="8.16895" width="197.625" height="197.624" filterUnits="userSpaceOnUse" color-interpolation-filters="sRGB">
<feFlood flood-opacity="0" result="BackgroundImageFix"/>
<feColorMatrix in="SourceAlpha" type="matrix" values="0 0 0 0 0 0 0 0 0 0 0 0 0 0 0 0 0 0 127 0" result="hardAlpha"/>
<feMorphology radius="23" operator="erode" in="SourceAlpha" result="effect1_dropShadow_445_1961"/>
<feOffset dy="24"/>
<feGaussianBlur stdDeviation="32.5"/>
<feComposite in2="hardAlpha" operator="out"/>
<feColorMatrix type="matrix" values="0 0 0 0 0.588235 0 0 0 0 0.164706 0 0 0 0 0.917647 0 0 0 0.22 0"/>
<feBlend mode="normal" in2="BackgroundImageFix" result="effect1_dropShadow_445_1961"/>
<feBlend mode="normal" in="SourceGraphic" in2="effect1_dropShadow_445_1961" result="shape"/>
<feColorMatrix in="SourceAlpha" type="matrix" values="0 0 0 0 0 0 0 0 0 0 0 0 0 0 0 0 0 0 127 0" result="hardAlpha"/>
<feOffset/>
<feGaussianBlur stdDeviation="30.5"/>
<feComposite in2="hardAlpha" operator="arithmetic" k2="-1" k3="1"/>
<feColorMatrix type="matrix" values="0 0 0 0 1 0 0 0 0 1 0 0 0 0 1 0 0 0 0.7 0"/>
<feBlend mode="normal" in2="shape" result="effect2_innerShadow_445_1961"/>
</filter>
<linearGradient id="paint0_linear_445_1961" x1="141.554" y1="163.089" x2="53.2144" y2="22.8857" gradientUnits="userSpaceOnUse">
<stop stop-color="#0B85DA"/>
<stop offset="1" stop-color="#03C3FF"/>
</linearGradient>
<linearGradient id="paint1_linear_445_1961" x1="137.347" y1="158.727" x2="49.0074" y2="18.5234" gradientUnits="userSpaceOnUse">
<stop stop-color="#FAF241"/>
<stop offset="1" stop-color="#F4A84F"/>
</linearGradient>
</defs>
</svg>
