<svg width="198" height="207" viewBox="0 0 198 207" fill="none" xmlns="http://www.w3.org/2000/svg">
<path d="M46.4343 85.2255C46.3627 59.7005 46.3269 46.9381 54.2343 38.9862C62.1417 31.0344 74.9041 30.9986 100.429 30.9271L105.669 30.9124C131.194 30.8408 143.957 30.805 151.908 38.7124C159.86 46.6198 159.896 59.3823 159.968 84.9072L159.982 90.1473C160.054 115.672 160.09 128.435 152.182 136.387C144.275 144.338 131.512 144.374 105.987 144.446L100.747 144.46C75.2224 144.532 62.4599 144.568 54.5081 136.66C46.5563 128.753 46.5205 115.99 46.4489 90.4655L46.4343 85.2255Z" fill="url(#paint0_linear_445_1941)"/>
<g filter="url(#filter0_di_445_1941)">
<path d="M42.1921 80.8984C42.1205 55.3734 42.0847 42.6109 49.9921 34.6591C57.8995 26.7073 70.662 26.6715 96.1869 26.5999L101.427 26.5852C126.952 26.5137 139.714 26.4779 147.666 34.3853C155.618 42.2926 155.654 55.0551 155.725 80.5801L155.74 85.8201C155.812 111.345 155.847 124.108 147.94 132.059C140.033 140.011 127.27 140.047 101.745 140.119L96.5052 140.133C70.9802 140.205 58.2177 140.241 50.2659 132.333C42.3141 124.426 42.2783 111.663 42.2068 86.1384L42.1921 80.8984Z" fill="url(#paint1_linear_445_1941)"/>
</g>
<path d="M117.964 93.1999C116.977 98.2417 112.517 102.118 107.387 102.394C104.282 102.561 101.473 101.519 99.3512 99.7182C98.1356 98.6918 98.5806 96.7247 100.142 96.3728C106.019 95.0353 110.869 90.8016 113.03 85.1695C113.595 83.6911 115.605 83.5242 116.453 84.8517C117.921 87.2215 118.561 90.1483 117.964 93.1999Z" fill="white"/>
<path d="M97.1245 63.4032C88.6926 62.8136 81.369 69.1799 80.7794 77.6118C80.1898 86.0437 86.5561 93.3673 94.988 93.9569C103.42 94.5466 110.743 88.1803 111.333 79.7483C111.904 71.3151 105.556 63.9928 97.1245 63.4032ZM94.4087 76.413L98.9043 78.3413C100.526 79.0503 101.248 80.2728 101.122 82.0701C100.978 84.135 99.2144 85.7217 97.2068 85.5813L97.0347 85.5693L97.0281 85.6649C96.9732 86.4488 96.2777 87.0534 95.4938 86.9986C94.7099 86.9438 94.1052 86.2483 94.1601 85.4643L94.1681 85.3496C92.0524 85.1056 90.4751 83.2085 90.6302 80.9905C90.685 80.2066 91.3806 79.602 92.1645 79.6568C92.9484 79.7116 93.553 80.4072 93.4982 81.1911C93.4501 81.8794 93.9084 82.4687 94.5203 82.5114L97.3882 82.712C97.828 82.7427 98.2002 82.3653 98.235 81.8682C98.2818 81.199 98.1698 81.1527 97.7407 80.969L93.2451 79.0407C91.6409 78.3521 90.9003 77.1283 91.0273 75.3119C91.1717 73.247 92.935 71.6603 94.9426 71.8006L95.1147 71.8127L95.12 71.7362C95.1748 70.9523 95.8704 70.3477 96.6543 70.4025C97.4382 70.4573 98.0428 71.1528 97.988 71.9367L97.98 72.0515C100.096 72.2955 101.673 74.1926 101.518 76.4105C101.463 77.1945 100.768 77.7991 99.9836 77.7443C99.1997 77.6894 98.5951 76.9939 98.6499 76.21C98.698 75.5217 98.2397 74.9324 97.6278 74.8896L94.7598 74.6891C94.3201 74.6583 93.9478 75.0358 93.9131 75.5329C93.8485 76.1817 93.9605 76.2279 94.4087 76.413Z" fill="white"/>
<defs>
<filter id="filter0_di_445_1941" x="0.179688" y="8.57227" width="197.574" height="197.573" filterUnits="userSpaceOnUse" color-interpolation-filters="sRGB">
<feFlood flood-opacity="0" result="BackgroundImageFix"/>
<feColorMatrix in="SourceAlpha" type="matrix" values="0 0 0 0 0 0 0 0 0 0 0 0 0 0 0 0 0 0 127 0" result="hardAlpha"/>
<feMorphology radius="23" operator="erode" in="SourceAlpha" result="effect1_dropShadow_445_1941"/>
<feOffset dy="24"/>
<feGaussianBlur stdDeviation="32.5"/>
<feComposite in2="hardAlpha" operator="out"/>
<feColorMatrix type="matrix" values="0 0 0 0 0.588235 0 0 0 0 0.164706 0 0 0 0 0.917647 0 0 0 0.22 0"/>
<feBlend mode="normal" in2="BackgroundImageFix" result="effect1_dropShadow_445_1941"/>
<feBlend mode="normal" in="SourceGraphic" in2="effect1_dropShadow_445_1941" result="shape"/>
<feColorMatrix in="SourceAlpha" type="matrix" values="0 0 0 0 0 0 0 0 0 0 0 0 0 0 0 0 0 0 127 0" result="hardAlpha"/>
<feOffset/>
<feGaussianBlur stdDeviation="30.5"/>
<feComposite in2="hardAlpha" operator="arithmetic" k2="-1" k3="1"/>
<feColorMatrix type="matrix" values="0 0 0 0 1 0 0 0 0 1 0 0 0 0 1 0 0 0 0.7 0"/>
<feBlend mode="normal" in2="shape" result="effect2_innerShadow_445_1941"/>
</filter>
<linearGradient id="paint0_linear_445_1941" x1="141.847" y1="163.121" x2="52.375" y2="23.6379" gradientUnits="userSpaceOnUse">
<stop stop-color="#0B85DA"/>
<stop offset="1" stop-color="#03C3FF"/>
</linearGradient>
<linearGradient id="paint1_linear_445_1941" x1="137.605" y1="158.794" x2="48.1328" y2="19.3107" gradientUnits="userSpaceOnUse">
<stop stop-color="#0B85DA"/>
<stop offset="1" stop-color="#03C3FF"/>
</linearGradient>
</defs>
</svg>
