<svg width="198" height="206" viewBox="0 0 198 206" fill="none" xmlns="http://www.w3.org/2000/svg">
<path d="M46.4379 84.459C46.556 58.9342 46.615 46.1718 54.5812 38.2789C62.5474 30.3861 75.3098 30.4451 100.835 30.5632L106.075 30.5874C131.599 30.7055 144.362 30.7646 152.255 38.7308C160.148 46.697 160.088 59.4594 159.97 84.9842L159.946 90.2242C159.828 115.749 159.769 128.511 151.803 136.404C143.837 144.297 131.074 144.238 105.549 144.12L100.309 144.096C74.7846 143.978 62.0222 143.919 54.1294 135.952C46.2365 127.986 46.2956 115.224 46.4136 89.699L46.4379 84.459Z" fill="#7368EE"/>
<g filter="url(#filter0_di_445_1957)">
<path d="M42.2308 80.1006C42.3489 54.5758 42.408 41.8134 50.3742 33.9205C58.3404 26.0277 71.1028 26.0867 96.6276 26.2048L101.868 26.229C127.392 26.3471 140.155 26.4062 148.048 34.3724C155.941 42.3386 155.881 55.101 155.763 80.6258L155.739 85.8658C155.621 111.391 155.562 124.153 147.596 132.046C139.63 139.939 126.867 139.88 101.342 139.762L96.1024 139.737C70.5776 139.619 57.8152 139.56 49.9223 131.594C42.0295 123.628 42.0885 110.865 42.2066 85.3406L42.2308 80.1006Z" fill="#7368EE"/>
</g>
<path d="M90.2936 99.5082C90.2361 99.5082 90.1594 99.5465 90.1019 99.5465C86.3836 97.7065 83.3553 94.659 81.4961 90.9407C81.4961 90.8832 81.5344 90.8065 81.5344 90.749C83.8728 91.439 86.2878 91.9565 88.6836 92.359C89.1053 94.774 89.6036 97.1699 90.2936 99.5082Z" fill="white"/>
<path d="M115.768 90.9599C113.87 94.774 110.708 97.8599 106.855 99.719C107.584 97.2849 108.197 94.8315 108.6 92.359C111.015 91.9565 113.391 91.439 115.73 90.749C115.71 90.8257 115.768 90.9024 115.768 90.9599Z" fill="white"/>
<path d="M115.921 74.2084C113.506 73.4801 111.072 72.8859 108.6 72.4642C108.197 69.9917 107.603 67.5384 106.855 65.1426C110.823 67.0401 114.024 70.2409 115.921 74.2084Z" fill="white"/>
<path d="M90.2946 65.3534C89.6046 67.6917 89.1062 70.0684 88.7037 72.4834C86.2312 72.8667 83.7779 73.4801 81.3438 74.2084C83.2029 70.3559 86.2887 67.1934 90.1029 65.2959C90.1604 65.2959 90.2371 65.3534 90.2946 65.3534Z" fill="white"/>
<path d="M105.324 72.0612C100.877 71.5628 96.392 71.5628 91.9453 72.0612C92.4245 69.4353 93.0378 66.8095 93.9003 64.2795C93.9386 64.1262 93.9195 64.0112 93.9386 63.8578C95.4528 63.4937 97.0053 63.2637 98.6345 63.2637C100.244 63.2637 101.816 63.4937 103.311 63.8578C103.33 64.0112 103.33 64.1262 103.369 64.2795C104.231 66.8287 104.844 69.4353 105.324 72.0612Z" fill="white"/>
<path d="M88.2623 89.1195C85.6173 88.6404 83.0107 88.027 80.4807 87.1645C80.3273 87.1262 80.2123 87.1454 80.059 87.1262C79.6948 85.612 79.4648 84.0595 79.4648 82.4304C79.4648 80.8204 79.6948 79.2487 80.059 77.7537C80.2123 77.7345 80.3273 77.7345 80.4807 77.6962C83.0298 76.8529 85.6173 76.2204 88.2623 75.7412C87.7832 80.1879 87.7832 84.6729 88.2623 89.1195Z" fill="white"/>
<path d="M117.801 82.4304C117.801 84.0595 117.571 85.612 117.207 87.1262C117.054 87.1454 116.939 87.1262 116.786 87.1645C114.236 88.0079 111.63 88.6404 109.004 89.1195C109.502 84.6729 109.502 80.1879 109.004 75.7412C111.63 76.2204 114.256 76.8337 116.786 77.6962C116.939 77.7345 117.054 77.7537 117.207 77.7537C117.571 79.2679 117.801 80.8204 117.801 82.4304Z" fill="white"/>
<path d="M105.324 92.7998C104.844 95.4448 104.231 98.0515 103.369 100.581C103.33 100.735 103.33 100.85 103.311 101.003C101.816 101.367 100.244 101.597 98.6345 101.597C97.0053 101.597 95.4528 101.367 93.9386 101.003C93.9195 100.85 93.9386 100.735 93.9003 100.581C93.057 98.0323 92.4245 95.4448 91.9453 92.7998C94.1686 93.049 96.392 93.2215 98.6345 93.2215C100.877 93.2215 103.119 93.049 105.324 92.7998Z" fill="white"/>
<path d="M105.845 89.6434C101.051 90.2482 96.2122 90.2482 91.4185 89.6434C90.8136 84.8496 90.8136 80.0111 91.4185 75.2173C96.2122 74.6125 101.051 74.6125 105.845 75.2173C106.449 80.0111 106.449 84.8496 105.845 89.6434Z" fill="white"/>
<defs>
<filter id="filter0_di_445_1957" x="0.179688" y="8.17871" width="197.609" height="197.609" filterUnits="userSpaceOnUse" color-interpolation-filters="sRGB">
<feFlood flood-opacity="0" result="BackgroundImageFix"/>
<feColorMatrix in="SourceAlpha" type="matrix" values="0 0 0 0 0 0 0 0 0 0 0 0 0 0 0 0 0 0 127 0" result="hardAlpha"/>
<feMorphology radius="23" operator="erode" in="SourceAlpha" result="effect1_dropShadow_445_1957"/>
<feOffset dy="24"/>
<feGaussianBlur stdDeviation="32.5"/>
<feComposite in2="hardAlpha" operator="out"/>
<feColorMatrix type="matrix" values="0 0 0 0 0.588235 0 0 0 0 0.164706 0 0 0 0 0.917647 0 0 0 0.22 0"/>
<feBlend mode="normal" in2="BackgroundImageFix" result="effect1_dropShadow_445_1957"/>
<feBlend mode="normal" in="SourceGraphic" in2="effect1_dropShadow_445_1957" result="shape"/>
<feColorMatrix in="SourceAlpha" type="matrix" values="0 0 0 0 0 0 0 0 0 0 0 0 0 0 0 0 0 0 127 0" result="hardAlpha"/>
<feOffset/>
<feGaussianBlur stdDeviation="30.5"/>
<feComposite in2="hardAlpha" operator="arithmetic" k2="-1" k3="1"/>
<feColorMatrix type="matrix" values="0 0 0 0 1 0 0 0 0 1 0 0 0 0 1 0 0 0 0.5 0"/>
<feBlend mode="normal" in2="shape" result="effect2_innerShadow_445_1957"/>
</filter>
</defs>
</svg>
