<svg width="198" height="206" viewBox="0 0 198 206" fill="none" xmlns="http://www.w3.org/2000/svg">
<path d="M46.5119 84.6801C46.4193 59.1552 46.373 46.3928 54.2739 38.4344C62.1747 30.4761 74.9371 30.4298 100.462 30.3372L105.702 30.3182C131.227 30.2256 143.989 30.1793 151.948 38.0801C159.906 45.9809 159.952 58.7434 160.045 84.2683L160.064 89.5083C160.157 115.033 160.203 127.796 152.302 135.754C144.401 143.712 131.639 143.759 106.114 143.851L100.874 143.87C75.349 143.963 62.5865 144.009 54.6282 136.108C46.6698 128.207 46.6235 115.445 46.5309 89.9201L46.5119 84.6801Z" fill="#EEA868"/>
<g filter="url(#filter0_di_445_2729)">
<path d="M42.2697 80.3564C42.1772 54.8315 42.1309 42.069 50.0317 34.1107C57.9325 26.1524 70.6949 26.1061 96.2198 26.0135L101.46 25.9945C126.985 25.9019 139.747 25.8556 147.706 33.7564C155.664 41.6572 155.71 54.4197 155.803 79.9446L155.822 85.1846C155.914 110.709 155.961 123.472 148.06 131.43C140.159 139.389 127.397 139.435 101.872 139.527L96.6317 139.546C71.1068 139.639 58.3443 139.685 50.386 131.785C42.4276 123.884 42.3813 111.121 42.2888 85.5964L42.2697 80.3564Z" fill="#EEA868"/>
</g>
<g clip-path="url(#clip0_445_2729)">
<path d="M117.393 57.4801C108.478 58.5704 98.9905 64.6439 93.5848 72.7566C87.4666 73.7345 81.847 77.0888 78.0674 82.1046C77.8466 82.393 77.8086 82.7835 77.9686 83.1094C78.1308 83.437 78.4618 83.644 78.8258 83.6451L86.288 83.6647L85.5268 84.8034C85.2436 85.2264 85.341 85.7953 85.748 86.102L99.6609 96.5861C99.8709 96.7443 100.127 96.8032 100.372 96.7688C100.598 96.737 100.812 96.6256 100.97 96.4389L101.855 95.3933L103.93 102.561C104.032 102.911 104.349 103.133 104.705 103.199C104.796 103.215 104.889 103.216 104.982 103.203C105.252 103.165 105.511 103.009 105.674 102.794C109.401 97.8475 111.077 91.521 110.331 85.3704C116.645 77.9235 119.906 67.1277 118.451 58.2759C118.367 57.7729 117.902 57.4222 117.393 57.4801ZM110.949 75.093C110.155 76.1472 109.005 76.781 107.789 76.952C106.572 77.123 105.292 76.8306 104.238 76.0362C102.129 74.4454 101.706 71.4352 103.295 69.3248C104.885 67.2142 107.896 66.7911 110.006 68.3816C112.117 69.9721 112.54 72.9842 110.949 75.093Z" fill="white"/>
<path d="M82.4542 95.1047C80.7088 97.421 79.2101 106.988 79.0447 108.07C78.9911 108.418 79.135 108.767 79.4145 108.98C79.6223 109.136 79.877 109.199 80.1256 109.164C80.2167 109.152 80.306 109.125 80.3934 109.086C81.3878 108.629 90.171 104.551 91.9164 102.235C93.8821 99.6264 93.359 95.9044 90.7505 93.9387C88.14 91.9733 84.4202 92.498 82.4542 95.1047Z" fill="white"/>
</g>
<defs>
<filter id="filter0_di_445_2729" x="0.25" y="7.97607" width="197.59" height="197.589" filterUnits="userSpaceOnUse" color-interpolation-filters="sRGB">
<feFlood flood-opacity="0" result="BackgroundImageFix"/>
<feColorMatrix in="SourceAlpha" type="matrix" values="0 0 0 0 0 0 0 0 0 0 0 0 0 0 0 0 0 0 127 0" result="hardAlpha"/>
<feMorphology radius="23" operator="erode" in="SourceAlpha" result="effect1_dropShadow_445_2729"/>
<feOffset dy="24"/>
<feGaussianBlur stdDeviation="32.5"/>
<feComposite in2="hardAlpha" operator="out"/>
<feColorMatrix type="matrix" values="0 0 0 0 0.952941 0 0 0 0 0.768627 0 0 0 0 0.596078 0 0 0 0.3 0"/>
<feBlend mode="normal" in2="BackgroundImageFix" result="effect1_dropShadow_445_2729"/>
<feBlend mode="normal" in="SourceGraphic" in2="effect1_dropShadow_445_2729" result="shape"/>
<feColorMatrix in="SourceAlpha" type="matrix" values="0 0 0 0 0 0 0 0 0 0 0 0 0 0 0 0 0 0 127 0" result="hardAlpha"/>
<feOffset/>
<feGaussianBlur stdDeviation="30.5"/>
<feComposite in2="hardAlpha" operator="arithmetic" k2="-1" k3="1"/>
<feColorMatrix type="matrix" values="0 0 0 0 1 0 0 0 0 1 0 0 0 0 1 0 0 0 0.7 0"/>
<feBlend mode="normal" in2="shape" result="effect2_innerShadow_445_2729"/>
</filter>
<clipPath id="clip0_445_2729">
<rect width="46" height="46" fill="white" transform="translate(72.7734 63.7456) rotate(-8)"/>
</clipPath>
</defs>
</svg>
