<svg width="429" height="337" viewBox="0 0 429 337" fill="none" xmlns="http://www.w3.org/2000/svg">
<g filter="url(#filter0_d_445_1976)">
<rect width="252.687" height="178.047" rx="23" transform="matrix(0.999214 0.039398 -0.0414914 0.999148 102.602 69.2676)" fill="white"/>
</g>
<rect opacity="0.5" width="252.687" height="178.047" rx="23" transform="matrix(0.999214 0.039398 -0.0414914 0.999148 106.664 73.9961)" fill="white"/>
<circle cx="2.72124" cy="2.72124" r="2.72124" transform="matrix(0.999391 0.0348995 -0.0369925 0.999315 118.301 85.5166)" fill="#2898F5"/>
<circle cx="2.72124" cy="2.72124" r="2.72124" transform="matrix(0.999391 0.0348995 -0.0369925 0.999315 126.469 85.8379)" fill="#2898F5"/>
<circle cx="2.72124" cy="2.72124" r="2.72124" transform="matrix(0.999391 0.0348995 -0.0369925 0.999315 134.637 86.1611)" fill="#2898F5"/>
<g opacity="0.1" filter="url(#filter1_d_445_1976)">
<path d="M273.185 118.508L271.441 165.634C271.362 167.753 269.552 169.438 267.433 169.364L220.303 167.718C218.184 167.644 216.503 165.838 216.581 163.718L218.326 116.592C218.404 114.473 220.214 112.788 222.334 112.863L269.463 114.508C271.583 114.582 273.264 116.389 273.185 118.508Z" fill="#2898F5"/>
</g>
<path d="M236.498 139.505C241.811 137.495 245.354 136.171 247.125 135.533C252.183 133.713 253.231 133.403 253.904 133.415C254.052 133.417 254.381 133.464 254.588 133.64C254.763 133.788 254.804 133.981 254.822 134.116C254.839 134.251 254.855 134.558 254.821 134.796C254.428 137.517 252.964 144.099 252.233 147.136C251.924 148.421 251.41 148.837 250.93 148.863C249.888 148.919 249.133 148.136 248.156 147.465C246.626 146.414 245.765 145.763 244.281 144.738C242.566 143.553 243.738 142.976 244.79 142.002C245.066 141.748 249.824 137.89 249.929 137.529C249.942 137.484 249.96 137.314 249.86 137.221C249.759 137.127 249.604 137.153 249.491 137.173C249.332 137.202 246.744 138.718 241.728 141.722C240.993 142.17 240.336 142.378 239.757 142.346C239.119 142.31 237.906 141.932 237.006 141.614C235.901 141.223 235.019 141.006 235.124 140.412C235.178 140.103 235.636 139.8 236.498 139.505Z" fill="#2898F5"/>
<g opacity="0.1" filter="url(#filter2_d_445_1976)">
<path d="M270.412 179.873L268.667 226.999C268.589 229.119 266.779 230.803 264.659 230.729L217.53 229.083C215.41 229.009 213.729 227.203 213.808 225.083L215.552 177.958C215.631 175.838 217.441 174.154 219.56 174.228L266.69 175.874C268.809 175.948 270.49 177.754 270.412 179.873Z" fill="#2898F5"/>
</g>
<path d="M249.966 198.845C249.795 198.109 249.309 197.571 248.604 197.338C247.395 196.983 242.193 196.802 242.193 196.802C242.193 196.802 237.094 196.624 235.754 196.89C235.031 197.073 234.498 197.575 234.261 198.296C233.996 199.641 233.873 202.346 233.873 202.346C233.873 202.346 233.751 205.051 233.996 206.414C234.167 207.15 234.653 207.687 235.358 207.92C236.567 208.275 241.768 208.457 241.768 208.457C241.768 208.457 246.868 208.635 248.208 208.369C248.931 208.186 249.464 207.684 249.701 206.963C250.068 205.621 250.191 202.916 250.191 202.916C250.191 202.916 250.313 200.211 249.966 198.845ZM240.287 205.071L240.513 200.077L244.684 202.724L240.287 205.071Z" fill="#2898F5"/>
<g opacity="0.1" filter="url(#filter3_d_445_1976)">
<path d="M335.349 120.679L333.605 167.805C333.526 169.924 331.716 171.609 329.597 171.535L282.467 169.889C280.348 169.815 278.667 168.008 278.745 165.889L280.49 118.763C280.568 116.644 282.378 114.959 284.498 115.033L331.627 116.679C333.747 116.753 335.428 118.56 335.349 120.679Z" fill="#2898F5"/>
</g>
<path d="M307.89 148.526C302.049 148.322 298.903 144.131 299.074 137.335L302.011 137.437C301.88 142.421 303.936 144.603 305.624 145.098L305.965 137.576L308.723 137.672L308.528 141.964C310.219 141.84 312.083 139.943 312.779 137.805L315.528 137.901C315.254 139.011 314.758 140.054 314.072 140.964C313.386 141.875 312.525 142.634 311.543 143.194C312.585 143.773 313.492 144.571 314.205 145.537C314.917 146.503 315.419 147.614 315.677 148.798L312.646 148.692C312.09 146.606 310.54 144.947 308.407 144.655L308.231 148.538L307.898 148.526L307.89 148.526Z" fill="#2898F5"/>
<g opacity="0.1" filter="url(#filter4_d_445_1976)">
<path d="M332.572 182.043L330.827 229.169C330.749 231.288 328.939 232.973 326.819 232.899L279.69 231.253C277.57 231.179 275.889 229.373 275.968 227.253L277.712 180.128C277.791 178.008 279.601 176.324 281.721 176.398L328.85 178.043C330.969 178.117 332.65 179.924 332.572 182.043Z" fill="#2898F5"/>
</g>
<path d="M304.523 197.483C306.891 197.566 307.214 197.577 308.183 197.611C309.045 197.641 309.466 197.871 309.784 197.99C310.205 198.22 310.523 198.339 310.831 198.673C311.139 199.008 311.34 199.338 311.428 199.772C311.521 200.099 311.61 200.533 311.678 201.398C311.634 202.367 311.625 202.582 311.513 205.057C311.401 207.533 311.391 207.748 311.347 208.716C311.308 209.577 311.073 210 310.951 210.319C310.716 210.742 310.594 211.062 310.257 211.373C309.919 211.685 309.586 211.889 309.151 211.981C308.823 212.078 308.387 212.17 307.521 212.248C306.552 212.214 306.337 212.206 303.861 212.12C301.385 212.034 301.169 212.026 300.2 211.992C299.339 211.962 298.918 211.732 298.6 211.613C298.179 211.383 297.861 211.264 297.553 210.93C297.244 210.595 297.044 210.265 296.955 209.831C296.862 209.504 296.774 209.07 296.705 208.205C296.749 207.236 296.759 207.021 296.871 204.546C296.983 202.071 296.993 201.855 297.037 200.887C297.075 200.026 297.31 199.603 297.433 199.284C297.667 198.861 297.79 198.541 298.127 198.23C298.465 197.918 298.797 197.714 299.233 197.622C299.561 197.525 299.996 197.433 300.862 197.355C301.831 197.389 302.154 197.4 304.523 197.483ZM304.596 195.869C302.12 195.782 301.904 195.775 300.935 195.741C299.967 195.707 299.311 195.9 298.763 196.096C298.215 196.293 297.662 196.597 297.099 197.116C296.537 197.635 296.302 198.058 295.95 198.693C295.71 199.223 295.573 199.865 295.422 200.83C295.378 201.799 295.363 202.122 295.256 204.489C295.144 206.965 295.134 207.18 295.091 208.149C295.047 209.117 295.233 209.771 295.424 210.316C295.615 210.862 295.913 211.411 296.427 211.968C296.941 212.525 297.362 212.755 297.994 213.101C298.522 213.335 299.163 213.465 300.127 213.607C301.096 213.64 301.419 213.652 303.788 213.734C306.156 213.817 306.479 213.828 307.448 213.862C308.417 213.896 309.073 213.703 309.621 213.507C310.169 213.31 310.722 213.006 311.284 212.487C311.847 211.968 312.082 211.545 312.434 210.91C312.674 210.38 312.811 209.738 312.962 208.773C313.006 207.804 313.021 207.481 313.128 205.114C313.235 202.746 313.249 202.423 313.293 201.454C313.337 200.486 313.151 199.832 312.96 199.287C312.769 198.741 312.47 198.192 311.956 197.635C311.442 197.078 311.021 196.848 310.39 196.502C309.862 196.268 309.22 196.138 308.256 195.997C307.287 195.963 307.072 195.955 304.596 195.869Z" fill="#2898F5"/>
<path d="M304.401 200.174C301.817 200.083 299.679 202.057 299.562 204.64C299.446 207.223 301.399 209.339 303.983 209.429C306.566 209.52 308.704 207.546 308.821 204.963C308.938 202.38 306.985 200.264 304.401 200.174ZM304.056 207.815C302.441 207.759 301.099 206.418 301.177 204.696C301.25 203.082 302.606 201.728 304.328 201.788C305.943 201.844 307.284 203.185 307.206 204.907C307.133 206.521 305.67 207.871 304.056 207.815Z" fill="#2898F5"/>
<path d="M309.094 201.308C309.689 201.328 310.193 200.863 310.22 200.269C310.247 199.675 309.786 199.176 309.192 199.155C308.597 199.134 308.093 199.599 308.066 200.194C308.04 200.788 308.5 201.287 309.094 201.308Z" fill="#2898F5"/>
<path opacity="0.1" d="M191.474 134.989L118.825 132.452C117.189 132.395 115.877 130.984 115.937 129.347L116.604 111.343C116.664 109.707 118.078 108.39 119.713 108.447L192.363 110.984C193.998 111.042 195.311 112.453 195.25 114.09L194.584 132.093C194.66 133.735 193.246 135.051 191.474 134.989Z" fill="#2898F5"/>
<path opacity="0.7" d="M184.895 124.791L125.739 122.725C125.058 122.702 124.533 122.137 124.558 121.455L124.619 119.818C124.644 119.136 125.209 118.61 125.891 118.634L185.046 120.699C185.728 120.723 186.253 121.288 186.227 121.97L186.167 123.606C186.141 124.288 185.576 124.815 184.895 124.791Z" fill="#2898F5"/>
<path opacity="0.1" d="M190.325 166.086L117.675 163.549C116.04 163.492 114.727 162.081 114.788 160.444L115.459 142.304C115.52 140.668 116.933 139.351 118.569 139.408L191.218 141.945C192.854 142.003 194.166 143.414 194.106 145.051L193.439 163.054C193.51 164.832 192.096 166.148 190.325 166.086Z" fill="#2898F5"/>
<path opacity="0.7" d="M183.742 155.888L124.587 153.822C123.905 153.798 123.38 153.234 123.406 152.552L123.466 150.915C123.492 150.233 124.057 149.707 124.738 149.73L183.894 151.796C184.575 151.82 185.1 152.384 185.075 153.066L185.014 154.703C184.989 155.385 184.424 155.912 183.742 155.888Z" fill="#2898F5"/>
<path opacity="0.1" d="M188.021 228.28L115.372 225.743C113.736 225.686 112.424 224.275 112.484 222.638L113.151 204.634C113.211 202.998 114.625 201.681 116.26 201.739L188.91 204.275C190.545 204.333 191.858 205.744 191.797 207.381L191.131 225.384C191.206 227.026 189.793 228.342 188.021 228.28Z" fill="#2898F5"/>
<path opacity="0.7" d="M181.441 218.082L122.286 216.016C121.605 215.993 121.08 215.428 121.105 214.746L121.165 213.109C121.191 212.427 121.756 211.901 122.438 211.925L181.593 213.99C182.274 214.014 182.799 214.579 182.774 215.261L182.714 216.897C182.688 217.579 182.123 218.106 181.441 218.082Z" fill="#2898F5"/>
<path opacity="0.1" d="M189.443 197.211L116.794 194.674C115.158 194.617 113.845 193.205 113.906 191.569L114.573 173.565C114.633 171.928 116.047 170.612 117.682 170.669L190.331 173.206C191.967 173.263 193.28 174.675 193.219 176.311L192.553 194.315C192.628 195.956 191.215 197.273 189.443 197.211Z" fill="#2898F5"/>
<path opacity="0.7" d="M182.863 187.013L123.708 184.947C123.027 184.923 122.502 184.359 122.527 183.677L122.587 182.04C122.613 181.358 123.178 180.832 123.86 180.855L183.015 182.921C183.696 182.945 184.221 183.509 184.196 184.191L184.135 185.828C184.11 186.51 183.545 187.037 182.863 187.013Z" fill="#2898F5"/>
<g filter="url(#filter5_di_445_1976)">
<ellipse cx="45.9036" cy="130.904" rx="34.9874" ry="34.9874" transform="rotate(-5 45.9036 130.904)" fill="#EE68D9"/>
</g>
<path d="M50.396 119.512C48.1763 119.706 46.2841 120.959 45.1903 122.723C43.8068 121.176 41.7257 120.271 39.506 120.465C35.7411 120.794 32.9557 124.127 33.2873 127.917C33.4149 129.376 33.766 130.705 34.2801 131.92C36.7542 137.883 43.0473 141.027 46.0908 141.774C46.5207 141.885 47.2074 141.824 47.6115 141.641C50.479 140.377 56.1306 136.187 57.5317 129.886C57.827 128.6 57.942 127.23 57.8143 125.771C57.4828 121.982 54.1609 119.183 50.396 119.512Z" fill="white"/>
<g filter="url(#filter6_di_445_1976)">
<circle cx="307.136" cy="279.134" r="27.2124" transform="rotate(9 307.136 279.134)" fill="#EE68D9"/>
</g>
<path d="M302.682 284.816L304.226 275.063C304.287 274.679 304.462 274.323 304.723 274.04L307.961 270.558C308.472 269.999 309.569 269.72 310.391 270.185C311.282 270.651 311.738 271.805 311.388 272.714L310.392 275.774C310.308 276.056 310.343 276.327 310.475 276.555C310.609 276.763 310.831 276.916 311.09 276.957L315.035 277.582C315.793 277.702 316.397 278.113 316.696 278.711C316.979 279.287 316.94 279.97 316.592 280.613L313.092 287.429C312.606 288.572 311.156 289.336 309.87 289.133L306.126 288.54C305.483 288.438 304.616 288.074 304.268 287.596L303.19 286.451C302.776 286.021 302.587 285.411 302.682 284.816Z" fill="white"/>
<path d="M301.472 272.708L300.483 272.551C298.995 272.316 298.299 272.796 298.074 274.216L296.545 283.873C296.32 285.294 296.833 285.965 298.321 286.201L299.31 286.358C300.798 286.593 301.494 286.113 301.719 284.692L303.248 275.036C303.473 273.615 302.96 272.943 301.472 272.708Z" fill="white"/>
<defs>
<filter id="filter0_d_445_1976" x="22.1484" y="0.155273" width="406.008" height="334.075" filterUnits="userSpaceOnUse" color-interpolation-filters="sRGB">
<feFlood flood-opacity="0" result="BackgroundImageFix"/>
<feColorMatrix in="SourceAlpha" type="matrix" values="0 0 0 0 0 0 0 0 0 0 0 0 0 0 0 0 0 0 127 0" result="hardAlpha"/>
<feOffset dy="4"/>
<feGaussianBlur stdDeviation="37"/>
<feComposite in2="hardAlpha" operator="out"/>
<feColorMatrix type="matrix" values="0 0 0 0 0.0431373 0 0 0 0 0.521569 0 0 0 0 0.854902 0 0 0 0.1 0"/>
<feBlend mode="normal" in2="BackgroundImageFix" result="effect1_dropShadow_445_1976"/>
<feBlend mode="normal" in="SourceGraphic" in2="effect1_dropShadow_445_1976" result="shape"/>
</filter>
<filter id="filter1_d_445_1976" x="194.578" y="101.86" width="100.609" height="100.506" filterUnits="userSpaceOnUse" color-interpolation-filters="sRGB">
<feFlood flood-opacity="0" result="BackgroundImageFix"/>
<feColorMatrix in="SourceAlpha" type="matrix" values="0 0 0 0 0 0 0 0 0 0 0 0 0 0 0 0 0 0 127 0" result="hardAlpha"/>
<feOffset dy="11"/>
<feGaussianBlur stdDeviation="11"/>
<feColorMatrix type="matrix" values="0 0 0 0 0.397708 0 0 0 0 0.47749 0 0 0 0 0.575 0 0 0 0.27 0"/>
<feBlend mode="normal" in2="BackgroundImageFix" result="effect1_dropShadow_445_1976"/>
<feBlend mode="normal" in="SourceGraphic" in2="effect1_dropShadow_445_1976" result="shape"/>
</filter>
<filter id="filter2_d_445_1976" x="191.805" y="163.226" width="100.609" height="100.506" filterUnits="userSpaceOnUse" color-interpolation-filters="sRGB">
<feFlood flood-opacity="0" result="BackgroundImageFix"/>
<feColorMatrix in="SourceAlpha" type="matrix" values="0 0 0 0 0 0 0 0 0 0 0 0 0 0 0 0 0 0 127 0" result="hardAlpha"/>
<feOffset dy="11"/>
<feGaussianBlur stdDeviation="11"/>
<feColorMatrix type="matrix" values="0 0 0 0 0.397708 0 0 0 0 0.47749 0 0 0 0 0.575 0 0 0 0.27 0"/>
<feBlend mode="normal" in2="BackgroundImageFix" result="effect1_dropShadow_445_1976"/>
<feBlend mode="normal" in="SourceGraphic" in2="effect1_dropShadow_445_1976" result="shape"/>
</filter>
<filter id="filter3_d_445_1976" x="256.742" y="104.031" width="100.609" height="100.506" filterUnits="userSpaceOnUse" color-interpolation-filters="sRGB">
<feFlood flood-opacity="0" result="BackgroundImageFix"/>
<feColorMatrix in="SourceAlpha" type="matrix" values="0 0 0 0 0 0 0 0 0 0 0 0 0 0 0 0 0 0 127 0" result="hardAlpha"/>
<feOffset dy="11"/>
<feGaussianBlur stdDeviation="11"/>
<feColorMatrix type="matrix" values="0 0 0 0 0.397708 0 0 0 0 0.47749 0 0 0 0 0.575 0 0 0 0.27 0"/>
<feBlend mode="normal" in2="BackgroundImageFix" result="effect1_dropShadow_445_1976"/>
<feBlend mode="normal" in="SourceGraphic" in2="effect1_dropShadow_445_1976" result="shape"/>
</filter>
<filter id="filter4_d_445_1976" x="253.965" y="165.396" width="100.609" height="100.506" filterUnits="userSpaceOnUse" color-interpolation-filters="sRGB">
<feFlood flood-opacity="0" result="BackgroundImageFix"/>
<feColorMatrix in="SourceAlpha" type="matrix" values="0 0 0 0 0 0 0 0 0 0 0 0 0 0 0 0 0 0 127 0" result="hardAlpha"/>
<feOffset dy="11"/>
<feGaussianBlur stdDeviation="11"/>
<feColorMatrix type="matrix" values="0 0 0 0 0.397708 0 0 0 0 0.47749 0 0 0 0 0.575 0 0 0 0.27 0"/>
<feBlend mode="normal" in2="BackgroundImageFix" result="effect1_dropShadow_445_1976"/>
<feBlend mode="normal" in="SourceGraphic" in2="effect1_dropShadow_445_1976" result="shape"/>
</filter>
<filter id="filter5_di_445_1976" x="7.91406" y="95.9141" width="85.9805" height="99.9785" filterUnits="userSpaceOnUse" color-interpolation-filters="sRGB">
<feFlood flood-opacity="0" result="BackgroundImageFix"/>
<feColorMatrix in="SourceAlpha" type="matrix" values="0 0 0 0 0 0 0 0 0 0 0 0 0 0 0 0 0 0 127 0" result="hardAlpha"/>
<feMorphology radius="13" operator="erode" in="SourceAlpha" result="effect1_dropShadow_445_1976"/>
<feOffset dx="5" dy="22"/>
<feGaussianBlur stdDeviation="10.5"/>
<feComposite in2="hardAlpha" operator="out"/>
<feColorMatrix type="matrix" values="0 0 0 0 0.945098 0 0 0 0 0.517647 0 0 0 0 0.878431 0 0 0 0.42 0"/>
<feBlend mode="normal" in2="BackgroundImageFix" result="effect1_dropShadow_445_1976"/>
<feBlend mode="normal" in="SourceGraphic" in2="effect1_dropShadow_445_1976" result="shape"/>
<feColorMatrix in="SourceAlpha" type="matrix" values="0 0 0 0 0 0 0 0 0 0 0 0 0 0 0 0 0 0 127 0" result="hardAlpha"/>
<feOffset dy="4"/>
<feGaussianBlur stdDeviation="30"/>
<feComposite in2="hardAlpha" operator="arithmetic" k2="-1" k3="1"/>
<feColorMatrix type="matrix" values="0 0 0 0 1 0 0 0 0 1 0 0 0 0 1 0 0 0 0.56 0"/>
<feBlend mode="normal" in2="shape" result="effect2_innerShadow_445_1976"/>
</filter>
<filter id="filter6_di_445_1976" x="276.918" y="251.918" width="70.4336" height="84.4326" filterUnits="userSpaceOnUse" color-interpolation-filters="sRGB">
<feFlood flood-opacity="0" result="BackgroundImageFix"/>
<feColorMatrix in="SourceAlpha" type="matrix" values="0 0 0 0 0 0 0 0 0 0 0 0 0 0 0 0 0 0 127 0" result="hardAlpha"/>
<feMorphology radius="13" operator="erode" in="SourceAlpha" result="effect1_dropShadow_445_1976"/>
<feOffset dx="5" dy="22"/>
<feGaussianBlur stdDeviation="10.5"/>
<feComposite in2="hardAlpha" operator="out"/>
<feColorMatrix type="matrix" values="0 0 0 0 0.945098 0 0 0 0 0.517647 0 0 0 0 0.878431 0 0 0 0.42 0"/>
<feBlend mode="normal" in2="BackgroundImageFix" result="effect1_dropShadow_445_1976"/>
<feBlend mode="normal" in="SourceGraphic" in2="effect1_dropShadow_445_1976" result="shape"/>
<feColorMatrix in="SourceAlpha" type="matrix" values="0 0 0 0 0 0 0 0 0 0 0 0 0 0 0 0 0 0 127 0" result="hardAlpha"/>
<feOffset dy="4"/>
<feGaussianBlur stdDeviation="30"/>
<feComposite in2="hardAlpha" operator="arithmetic" k2="-1" k3="1"/>
<feColorMatrix type="matrix" values="0 0 0 0 1 0 0 0 0 1 0 0 0 0 1 0 0 0 0.56 0"/>
<feBlend mode="normal" in2="shape" result="effect2_innerShadow_445_1976"/>
</filter>
</defs>
</svg>
