<svg width="40" height="40" viewBox="0 0 40 40" fill="none" xmlns="http://www.w3.org/2000/svg">
<path d="M10.9181 18.6996C15.571 16.6724 18.6737 15.336 20.2261 14.6903C24.6585 12.8467 25.5796 12.5264 26.1799 12.5157C26.3119 12.5135 26.6071 12.5462 26.7983 12.7014C26.9598 12.8324 27.0042 13.0094 27.0255 13.1336C27.0468 13.2579 27.0732 13.5408 27.0522 13.762C26.812 16.2857 25.7727 22.4102 25.2439 25.2369C25.0202 26.433 24.5796 26.834 24.1531 26.8733C23.2263 26.9585 22.5225 26.2607 21.6247 25.6722C20.22 24.7514 19.4264 24.1782 18.0628 23.2796C16.487 22.2412 17.5086 21.6704 18.4066 20.7377C18.6416 20.4936 22.7254 16.779 22.8045 16.4421C22.8144 16.3999 22.8235 16.2428 22.7302 16.1599C22.6369 16.0769 22.4992 16.1053 22.3998 16.1279C22.2589 16.1598 20.0148 17.6431 15.6674 20.5777C15.0305 21.0151 14.4535 21.2282 13.9366 21.217C13.3667 21.2047 12.2705 20.8948 11.4555 20.6299C10.456 20.305 9.66159 20.1332 9.73076 19.5814C9.76679 19.294 10.1626 19.0001 10.9181 18.6996Z" fill="white"/>
<circle opacity="0.2" cx="20" cy="20" r="19.5" stroke="white"/>
</svg>
