<svg width="198" height="207" viewBox="0 0 198 207" fill="none" xmlns="http://www.w3.org/2000/svg">
<path d="M46.5129 84.9657C46.5384 59.4407 46.5512 46.6781 54.4887 38.7564C62.4262 30.8347 75.1888 30.8475 100.714 30.873L105.954 30.8782C131.479 30.9037 144.241 30.9165 152.163 38.854C160.085 46.7916 160.072 59.5541 160.047 85.0792L160.041 90.3192C160.016 115.844 160.003 128.607 152.066 136.528C144.128 144.45 131.365 144.437 105.84 144.412L100.6 144.407C75.0753 144.381 62.3128 144.368 54.3911 136.431C46.4694 128.493 46.4821 115.731 46.5077 90.2057L46.5129 84.9657Z" fill="#C25D57"/>
<g filter="url(#filter0_di_445_2767)">
<path d="M42.2902 80.622C42.3157 55.0969 42.3285 42.3344 50.266 34.4127C58.2036 26.491 70.9661 26.5037 96.4912 26.5292L101.731 26.5345C127.256 26.56 140.019 26.5727 147.941 34.5103C155.862 42.4478 155.849 55.2104 155.824 80.7354L155.819 85.9755C155.793 111.501 155.78 124.263 147.843 132.185C139.905 140.106 127.143 140.094 101.618 140.068L96.3777 140.063C70.8527 140.037 58.0901 140.025 50.1684 132.087C42.2467 124.15 42.2595 111.387 42.285 85.862L42.2902 80.622Z" fill="#BD5049"/>
</g>
<path d="M113.582 95.7487C113.294 96.0362 112.93 96.1703 112.566 96.1703C112.202 96.1703 111.837 96.0362 111.55 95.7487L102.062 86.2612L103.078 85.2453L104.094 84.2295L113.582 93.717C114.138 94.2728 114.138 95.1928 113.582 95.7487Z" fill="white"/>
<path d="M86.6171 77.042L97.7338 88.1587C98.4813 88.9062 98.4813 90.1137 97.7338 90.8612L96.0088 92.6054C94.4563 94.1387 92.0029 94.1387 90.4696 92.6054L82.1513 84.287C80.6371 82.7729 80.6371 80.3004 82.1513 78.767L83.8954 77.0229C84.6429 76.2945 85.8696 76.2945 86.6171 77.042Z" fill="white"/>
<path d="M109.845 78.7856L102.542 86.0689C101.776 86.8356 100.549 86.8356 99.7822 86.0689L88.7039 74.9906C87.9372 74.2239 87.9372 72.9973 88.7039 72.2306L96.0064 64.9281C97.5206 63.4139 99.9931 63.4139 101.526 64.9281L109.845 73.2464C111.359 74.7798 111.359 77.2331 109.845 78.7856Z" fill="white"/>
<path d="M89.5508 100.943H78.0508C77.2649 100.943 76.6133 100.291 76.6133 99.5054C76.6133 98.7195 77.2649 98.0679 78.0508 98.0679H89.5508C90.3366 98.0679 90.9883 98.7195 90.9883 99.5054C90.9883 100.291 90.3366 100.943 89.5508 100.943Z" fill="white"/>
<defs>
<filter id="filter0_di_445_2767" x="0.28125" y="8.52637" width="197.547" height="197.544" filterUnits="userSpaceOnUse" color-interpolation-filters="sRGB">
<feFlood flood-opacity="0" result="BackgroundImageFix"/>
<feColorMatrix in="SourceAlpha" type="matrix" values="0 0 0 0 0 0 0 0 0 0 0 0 0 0 0 0 0 0 127 0" result="hardAlpha"/>
<feMorphology radius="23" operator="erode" in="SourceAlpha" result="effect1_dropShadow_445_2767"/>
<feOffset dy="24"/>
<feGaussianBlur stdDeviation="32.5"/>
<feComposite in2="hardAlpha" operator="out"/>
<feColorMatrix type="matrix" values="0 0 0 0 0.815686 0 0 0 0 0.505882 0 0 0 0 0.486275 0 0 0 0.3 0"/>
<feBlend mode="normal" in2="BackgroundImageFix" result="effect1_dropShadow_445_2767"/>
<feBlend mode="normal" in="SourceGraphic" in2="effect1_dropShadow_445_2767" result="shape"/>
<feColorMatrix in="SourceAlpha" type="matrix" values="0 0 0 0 0 0 0 0 0 0 0 0 0 0 0 0 0 0 127 0" result="hardAlpha"/>
<feOffset/>
<feGaussianBlur stdDeviation="30.5"/>
<feComposite in2="hardAlpha" operator="arithmetic" k2="-1" k3="1"/>
<feColorMatrix type="matrix" values="0 0 0 0 1 0 0 0 0 1 0 0 0 0 1 0 0 0 0.7 0"/>
<feBlend mode="normal" in2="shape" result="effect2_innerShadow_445_2767"/>
</filter>
</defs>
</svg>
