<svg width="1048" height="689" viewBox="0 0 1048 689" fill="none" xmlns="http://www.w3.org/2000/svg">
<path d="M284 570.5L280.053 573.57L284 570.5ZM780.5 203L785.273 201.509L780.5 203ZM1035.5 0L992.691 38.7386L1047.64 56.4434L1035.5 0ZM9.89716 759.009C19.2584 713.569 32.7805 668.365 49.8775 628.877C67.0005 589.329 87.5777 555.822 110.896 533.486C134.144 511.217 159.712 500.384 187.296 504.979C215.128 509.615 246.279 530.146 280.053 573.57L287.947 567.431C253.471 523.104 220.33 500.344 188.939 495.115C157.299 489.845 128.71 502.575 103.979 526.264C79.3181 549.886 58.0933 584.733 40.7007 624.904C23.282 665.135 9.57489 711.014 0.102845 756.991L9.89716 759.009ZM280.053 573.57C312.286 615.013 343.329 635.823 373.499 639.728C403.807 643.652 431.804 630.344 457.458 606.886C483.092 583.446 506.947 549.39 529.255 510.442C551.593 471.443 572.549 427.234 592.288 383.278C612.096 339.169 630.541 295.635 648.147 257.279C665.74 218.952 682.182 186.511 697.691 164.943C705.459 154.141 712.744 146.426 719.523 142.01C726.174 137.676 731.915 136.754 737.251 138.62C742.881 140.589 749.161 146.026 755.83 156.9C762.45 167.697 769.099 183.274 775.727 204.491L785.273 201.509C778.526 179.913 771.584 163.462 764.354 151.672C757.171 139.96 749.34 132.254 740.552 129.181C731.471 126.005 722.488 128.143 714.064 133.631C705.769 139.036 697.628 147.903 689.573 159.105C673.437 181.543 656.647 214.79 639.059 253.107C621.484 291.395 602.799 335.461 583.166 379.182C563.463 423.056 542.667 466.907 520.578 505.472C498.459 544.088 475.213 577.1 450.71 599.506C426.226 621.894 401.048 633.211 374.783 629.811C348.378 626.393 319.448 607.933 287.947 567.431L280.053 573.57ZM775.727 204.491C785.479 235.706 795.881 259.235 806.825 276.103C817.752 292.945 829.475 303.535 842.009 308.17C854.717 312.87 867.493 311.169 879.765 304.99C891.91 298.875 903.706 288.323 915.002 274.967C937.601 248.244 959.14 209.151 978.129 167.665C997.154 126.101 1013.77 81.8021 1026.44 44.4374L1016.97 41.2265C1004.37 78.3823 987.877 122.342 969.036 163.503C950.16 204.743 929.073 242.843 907.366 268.509C896.509 281.347 885.732 290.789 875.268 296.058C864.932 301.263 855.064 302.336 845.478 298.791C835.718 295.182 825.497 286.509 815.214 270.66C804.949 254.838 794.876 232.249 785.273 201.509L775.727 204.491Z" fill="#2898F5"/>
</svg>
